G04*
G04 #@! TF.GenerationSoftware,Altium Limited,Altium Designer,20.2.6 (244)*
G04*
G04 Layer_Color=65280*
%FSLAX44Y44*%
%MOMM*%
G71*
G04*
G04 #@! TF.SameCoordinates,8B2779CE-768C-4C2E-8B4F-FC9E545F8715*
G04*
G04*
G04 #@! TF.FilePolarity,Positive*
G04*
G01*
G75*
%ADD89C,0.5000*%
%ADD90C,0.2540*%
%ADD100C,0.3810*%
D89*
X6820Y-388040D02*
Y-358050D01*
X21815D01*
X26813Y-363048D01*
Y-373045D01*
X21815Y-378043D01*
X6820D01*
X16817D02*
X26813Y-388040D01*
X41809Y-368046D02*
X51805D01*
X56804Y-373045D01*
Y-388040D01*
X41809D01*
X36810Y-383042D01*
X41809Y-378043D01*
X56804D01*
X66801Y-398037D02*
Y-368046D01*
X81796D01*
X86794Y-373045D01*
Y-383042D01*
X81796Y-388040D01*
X66801D01*
X96791Y-358050D02*
Y-388040D01*
X111786D01*
X116784Y-383042D01*
Y-378043D01*
Y-373045D01*
X111786Y-368046D01*
X96791D01*
X141776Y-388040D02*
X131779D01*
X126781Y-383042D01*
Y-373045D01*
X131779Y-368046D01*
X141776D01*
X146775Y-373045D01*
Y-378043D01*
X126781D01*
X156771Y-368046D02*
Y-388040D01*
Y-378043D01*
X161770Y-373045D01*
X166768Y-368046D01*
X171767D01*
X186762D02*
Y-388040D01*
Y-378043D01*
X191760Y-373045D01*
X196758Y-368046D01*
X201757D01*
X216752D02*
Y-383042D01*
X221750Y-388040D01*
X236746D01*
Y-393038D01*
X231747Y-398037D01*
X226749D01*
X236746Y-388040D02*
Y-368046D01*
X276733Y-388040D02*
Y-358050D01*
X291728D01*
X296726Y-363048D01*
Y-373045D01*
X291728Y-378043D01*
X276733D01*
X306723Y-388040D02*
X316720D01*
X311721D01*
Y-368046D01*
X306723D01*
X361705Y-388040D02*
Y-358050D01*
X376700D01*
X381699Y-363048D01*
Y-373045D01*
X376700Y-378043D01*
X361705D01*
X391695Y-388040D02*
X401692D01*
X396694D01*
Y-368046D01*
X391695D01*
X436681D02*
X421686D01*
X416687Y-373045D01*
Y-383042D01*
X421686Y-388040D01*
X436681D01*
X451676D02*
X461673D01*
X466671Y-383042D01*
Y-373045D01*
X461673Y-368046D01*
X451676D01*
X446678Y-373045D01*
Y-383042D01*
X451676Y-388040D01*
X726820Y-388040D02*
Y-358050D01*
X741815D01*
X746814Y-363048D01*
Y-373045D01*
X741815Y-378043D01*
X726820D01*
X736817D02*
X746814Y-388040D01*
X771805D02*
X761809D01*
X756810Y-383042D01*
Y-373045D01*
X761809Y-368046D01*
X771805D01*
X776804Y-373045D01*
Y-378043D01*
X756810D01*
X786801Y-368046D02*
X796797Y-388040D01*
X806794Y-368046D01*
X816791Y-388040D02*
X826788D01*
X821789D01*
Y-358050D01*
X816791Y-363048D01*
X841783Y-388040D02*
Y-383042D01*
X846781D01*
Y-388040D01*
X841783D01*
X866775Y-363048D02*
X871773Y-358050D01*
X881770D01*
X886768Y-363048D01*
Y-383042D01*
X881770Y-388040D01*
X871773D01*
X866775Y-383042D01*
Y-363048D01*
D90*
X915849Y-613040D02*
Y-512290D01*
X-48180Y-613040D02*
X915849D01*
X-48180Y-513040D02*
X915924D01*
X-48180Y-413040D02*
X916686D01*
X-48180Y-338040D02*
X915924D01*
X915924Y-513040D01*
X701820Y-413040D02*
Y-338040D01*
X-48180Y-612290D02*
Y-512290D01*
Y-513040D02*
Y-338040D01*
X2540Y899156D02*
X12697Y888999D01*
X2540D02*
X12697Y899156D01*
X2540Y894078D02*
X12697D01*
X7618Y888999D02*
Y899156D01*
X17775Y886460D02*
Y888999D01*
X20314D01*
Y886460D01*
X17775D01*
X40628Y899156D02*
X38089Y901695D01*
X33010D01*
X30471Y899156D01*
Y888999D01*
X33010Y886460D01*
X38089D01*
X40628Y888999D01*
Y894078D01*
X35549D01*
X45706Y886460D02*
Y901695D01*
X50784Y896617D01*
X55863Y901695D01*
Y886460D01*
X60941D02*
X66020D01*
X63480D01*
Y901695D01*
X60941Y899156D01*
X73637Y886460D02*
X78715D01*
X76176D01*
Y901695D01*
X73637Y899156D01*
X101568Y894078D02*
X111725D01*
X132038Y901695D02*
Y886460D01*
X139656D01*
X142195Y888999D01*
Y891538D01*
X139656Y894078D01*
X132038D01*
X139656D01*
X142195Y896617D01*
Y899156D01*
X139656Y901695D01*
X132038D01*
X149812Y886460D02*
X154891D01*
X157430Y888999D01*
Y894078D01*
X154891Y896617D01*
X149812D01*
X147273Y894078D01*
Y888999D01*
X149812Y886460D01*
X165047Y896617D02*
X170126D01*
X172665Y894078D01*
Y886460D01*
X165047D01*
X162508Y888999D01*
X165047Y891538D01*
X172665D01*
X177743Y896617D02*
Y886460D01*
Y891538D01*
X180282Y894078D01*
X182822Y896617D01*
X185361D01*
X203135Y901695D02*
Y886460D01*
X195518D01*
X192978Y888999D01*
Y894078D01*
X195518Y896617D01*
X203135D01*
X223449Y901695D02*
Y886460D01*
X231066D01*
X233605Y888999D01*
Y899156D01*
X231066Y901695D01*
X223449D01*
X238684Y886460D02*
X243762D01*
X241223D01*
Y896617D01*
X238684D01*
X251380Y886460D02*
Y896617D01*
X253919D01*
X256458Y894078D01*
Y886460D01*
Y894078D01*
X258997Y896617D01*
X261536Y894078D01*
Y886460D01*
X274232D02*
X269154D01*
X266615Y888999D01*
Y894078D01*
X269154Y896617D01*
X274232D01*
X276771Y894078D01*
Y891538D01*
X266615D01*
X281850Y886460D02*
Y896617D01*
X289467D01*
X292006Y894078D01*
Y886460D01*
X297085D02*
X304702D01*
X307241Y888999D01*
X304702Y891538D01*
X299624D01*
X297085Y894078D01*
X299624Y896617D01*
X307241D01*
X312320Y886460D02*
X317398D01*
X314859D01*
Y896617D01*
X312320D01*
X327555Y886460D02*
X332633D01*
X335172Y888999D01*
Y894078D01*
X332633Y896617D01*
X327555D01*
X325016Y894078D01*
Y888999D01*
X327555Y886460D01*
X340251D02*
Y896617D01*
X347868D01*
X350407Y894078D01*
Y886460D01*
X355486D02*
X363103D01*
X365643Y888999D01*
X363103Y891538D01*
X358025D01*
X355486Y894078D01*
X358025Y896617D01*
X365643D01*
X388495Y886460D02*
X393573D01*
X396113Y888999D01*
Y894078D01*
X393573Y896617D01*
X388495D01*
X385956Y894078D01*
Y888999D01*
X388495Y886460D01*
X401191D02*
Y901695D01*
Y891538D02*
X408809Y896617D01*
X401191Y891538D02*
X408809Y886460D01*
X2540Y951656D02*
X12697Y941499D01*
X2540D02*
X12697Y951656D01*
X2540Y946578D02*
X12697D01*
X7618Y941499D02*
Y951656D01*
X17775Y938960D02*
Y941499D01*
X20314D01*
Y938960D01*
X17775D01*
X40628Y951656D02*
X38089Y954195D01*
X33010D01*
X30471Y951656D01*
Y941499D01*
X33010Y938960D01*
X38089D01*
X40628Y941499D01*
Y946578D01*
X35549D01*
X45706Y938960D02*
Y954195D01*
X50784Y949117D01*
X55863Y954195D01*
Y938960D01*
X60941D02*
X66020D01*
X63480D01*
Y954195D01*
X60941Y951656D01*
X88872Y946578D02*
X99029D01*
X119342Y954195D02*
Y938960D01*
X126960D01*
X129499Y941499D01*
Y944038D01*
X126960Y946578D01*
X119342D01*
X126960D01*
X129499Y949117D01*
Y951656D01*
X126960Y954195D01*
X119342D01*
X137116Y938960D02*
X142195D01*
X144734Y941499D01*
Y946578D01*
X142195Y949117D01*
X137116D01*
X134577Y946578D01*
Y941499D01*
X137116Y938960D01*
X152352Y949117D02*
X157430D01*
X159969Y946578D01*
Y938960D01*
X152352D01*
X149812Y941499D01*
X152352Y944038D01*
X159969D01*
X165047Y949117D02*
Y938960D01*
Y944038D01*
X167587Y946578D01*
X170126Y949117D01*
X172665D01*
X190439Y954195D02*
Y938960D01*
X182822D01*
X180282Y941499D01*
Y946578D01*
X182822Y949117D01*
X190439D01*
X218370Y954195D02*
X213292D01*
X210753Y951656D01*
Y941499D01*
X213292Y938960D01*
X218370D01*
X220909Y941499D01*
Y951656D01*
X218370Y954195D01*
X225988Y949117D02*
Y941499D01*
X228527Y938960D01*
X236144D01*
Y949117D01*
X243762Y951656D02*
Y949117D01*
X241223D01*
X246301D01*
X243762D01*
Y941499D01*
X246301Y938960D01*
X253919D02*
X258997D01*
X256458D01*
Y954195D01*
X253919D01*
X266615Y938960D02*
X271693D01*
X269154D01*
Y949117D01*
X266615D01*
X279310Y938960D02*
Y949117D01*
X286928D01*
X289467Y946578D01*
Y938960D01*
X302163D02*
X297085D01*
X294545Y941499D01*
Y946578D01*
X297085Y949117D01*
X302163D01*
X304702Y946578D01*
Y944038D01*
X294545D01*
X327555Y938960D02*
X332633D01*
X335172Y941499D01*
Y946578D01*
X332633Y949117D01*
X327555D01*
X325016Y946578D01*
Y941499D01*
X327555Y938960D01*
X340251D02*
Y954195D01*
Y944038D02*
X347868Y949117D01*
X340251Y944038D02*
X347868Y938960D01*
X2540Y926656D02*
X12697Y916499D01*
X2540D02*
X12697Y926656D01*
X2540Y921578D02*
X12697D01*
X7618Y916499D02*
Y926656D01*
X17775Y913960D02*
Y916499D01*
X20314D01*
Y913960D01*
X17775D01*
X40628Y926656D02*
X38089Y929195D01*
X33010D01*
X30471Y926656D01*
Y916499D01*
X33010Y913960D01*
X38089D01*
X40628Y916499D01*
Y921578D01*
X35549D01*
X45706Y913960D02*
Y929195D01*
X50784Y924117D01*
X55863Y929195D01*
Y913960D01*
X71098D02*
X60941D01*
X71098Y924117D01*
Y926656D01*
X68559Y929195D01*
X63480D01*
X60941Y926656D01*
X91411Y921578D02*
X101568D01*
X121881Y913960D02*
Y929195D01*
X126960Y924117D01*
X132038Y929195D01*
Y913960D01*
X139656Y924117D02*
X144734D01*
X147273Y921578D01*
Y913960D01*
X139656D01*
X137116Y916499D01*
X139656Y919038D01*
X147273D01*
X152352Y913960D02*
Y924117D01*
X159969D01*
X162508Y921578D01*
Y913960D01*
X167587Y924117D02*
Y916499D01*
X170126Y913960D01*
X177743D01*
Y924117D01*
X185361Y913960D02*
Y926656D01*
Y921578D01*
X182822D01*
X187900D01*
X185361D01*
Y926656D01*
X187900Y929195D01*
X198057Y924117D02*
X203135D01*
X205674Y921578D01*
Y913960D01*
X198057D01*
X195518Y916499D01*
X198057Y919038D01*
X205674D01*
X220909Y924117D02*
X213292D01*
X210753Y921578D01*
Y916499D01*
X213292Y913960D01*
X220909D01*
X228527Y926656D02*
Y924117D01*
X225988D01*
X231066D01*
X228527D01*
Y916499D01*
X231066Y913960D01*
X238684Y924117D02*
Y916499D01*
X241223Y913960D01*
X248840D01*
Y924117D01*
X253919D02*
Y913960D01*
Y919038D01*
X256458Y921578D01*
X258997Y924117D01*
X261536D01*
X269154Y913960D02*
X274232D01*
X271693D01*
Y924117D01*
X269154D01*
X281850Y913960D02*
Y924117D01*
X289467D01*
X292006Y921578D01*
Y913960D01*
X302163Y908882D02*
X304702D01*
X307241Y911421D01*
Y924117D01*
X299624D01*
X297085Y921578D01*
Y916499D01*
X299624Y913960D01*
X307241D01*
X327555D02*
Y929195D01*
X337712Y913960D01*
Y929195D01*
X345329Y913960D02*
X350407D01*
X352947Y916499D01*
Y921578D01*
X350407Y924117D01*
X345329D01*
X342790Y921578D01*
Y916499D01*
X345329Y913960D01*
X360564Y926656D02*
Y924117D01*
X358025D01*
X363103D01*
X360564D01*
Y916499D01*
X363103Y913960D01*
X378338D02*
X373260D01*
X370721Y916499D01*
Y921578D01*
X373260Y924117D01*
X378338D01*
X380878Y921578D01*
Y919038D01*
X370721D01*
X385956Y913960D02*
X393573D01*
X396113Y916499D01*
X393573Y919038D01*
X388495D01*
X385956Y921578D01*
X388495Y924117D01*
X396113D01*
X418965Y913960D02*
X424044D01*
X426583Y916499D01*
Y921578D01*
X424044Y924117D01*
X418965D01*
X416426Y921578D01*
Y916499D01*
X418965Y913960D01*
X431661D02*
Y929195D01*
Y919038D02*
X439279Y924117D01*
X431661Y919038D02*
X439279Y913960D01*
X701618Y889360D02*
Y904595D01*
X694000Y896978D01*
X704157D01*
X709235Y889360D02*
Y891899D01*
X711774D01*
Y889360D01*
X709235D01*
X747323Y902056D02*
X744784Y904595D01*
X739705D01*
X737166Y902056D01*
Y891899D01*
X739705Y889360D01*
X744784D01*
X747323Y891899D01*
X760019Y904595D02*
X754940D01*
X752401Y902056D01*
Y891899D01*
X754940Y889360D01*
X760019D01*
X762558Y891899D01*
Y902056D01*
X760019Y904595D01*
X767636Y889360D02*
Y904595D01*
X772714Y899517D01*
X777793Y904595D01*
Y889360D01*
X782871D02*
Y904595D01*
X790489D01*
X793028Y902056D01*
Y896978D01*
X790489Y894438D01*
X782871D01*
X805724Y904595D02*
X800646D01*
X798106Y902056D01*
Y891899D01*
X800646Y889360D01*
X805724D01*
X808263Y891899D01*
Y902056D01*
X805724Y904595D01*
X813341Y889360D02*
Y904595D01*
X823498Y889360D01*
Y904595D01*
X838733D02*
X828577D01*
Y889360D01*
X838733D01*
X828577Y896978D02*
X833655D01*
X843811Y889360D02*
Y904595D01*
X853968Y889360D01*
Y904595D01*
X859047D02*
X869203D01*
X864125D01*
Y889360D01*
X889517Y904595D02*
X894595D01*
X892056D01*
Y889360D01*
X889517D01*
X894595D01*
X902213Y904595D02*
Y889360D01*
X909830D01*
X912369Y891899D01*
Y902056D01*
X909830Y904595D01*
X902213D01*
X927604D02*
X917448D01*
Y889360D01*
X927604D01*
X917448Y896978D02*
X922526D01*
X932683Y889360D02*
Y904595D01*
X942840Y889360D01*
Y904595D01*
X947918D02*
X958075D01*
X952996D01*
Y889360D01*
X963153Y899517D02*
X965692D01*
Y896978D01*
X963153D01*
Y899517D01*
Y891899D02*
X965692D01*
Y889360D01*
X963153D01*
Y891899D01*
X1001241Y902056D02*
X998701Y904595D01*
X993623D01*
X991084Y902056D01*
Y891899D01*
X993623Y889360D01*
X998701D01*
X1001241Y891899D01*
X1013936Y904595D02*
X1008858D01*
X1006319Y902056D01*
Y891899D01*
X1008858Y889360D01*
X1013936D01*
X1016476Y891899D01*
Y902056D01*
X1013936Y904595D01*
X1021554D02*
Y889360D01*
X1031711D01*
X1044407Y904595D02*
X1039328D01*
X1036789Y902056D01*
Y891899D01*
X1039328Y889360D01*
X1044407D01*
X1046946Y891899D01*
Y902056D01*
X1044407Y904595D01*
X1052024D02*
Y891899D01*
X1054563Y889360D01*
X1059642D01*
X1062181Y891899D01*
Y904595D01*
X1067259Y889360D02*
Y904595D01*
X1074877D01*
X1077416Y902056D01*
Y896978D01*
X1074877Y894438D01*
X1067259D01*
X1072338D02*
X1077416Y889360D01*
X1097729Y904595D02*
X1107886D01*
X1102808D01*
Y889360D01*
X1120582Y904595D02*
X1115504D01*
X1112964Y902056D01*
Y891899D01*
X1115504Y889360D01*
X1120582D01*
X1123121Y891899D01*
Y902056D01*
X1120582Y904595D01*
X1143435D02*
Y889360D01*
X1151052D01*
X1153591Y891899D01*
Y894438D01*
X1151052Y896978D01*
X1143435D01*
X1151052D01*
X1153591Y899517D01*
Y902056D01*
X1151052Y904595D01*
X1143435D01*
X1168826D02*
X1158670D01*
Y889360D01*
X1168826D01*
X1158670Y896978D02*
X1163748D01*
X1189140Y904595D02*
Y889360D01*
X1194218Y894438D01*
X1199297Y889360D01*
Y904595D01*
X1204375D02*
Y889360D01*
Y896978D01*
X1214532D01*
Y904595D01*
Y889360D01*
X1219610Y904595D02*
X1224688D01*
X1222149D01*
Y889360D01*
X1219610D01*
X1224688D01*
X1232306Y904595D02*
X1242463D01*
X1237384D01*
Y889360D01*
X1257698Y904595D02*
X1247541D01*
Y889360D01*
X1257698D01*
X1247541Y896978D02*
X1252619D01*
X694000Y952056D02*
X696539Y954595D01*
X701618D01*
X704157Y952056D01*
Y949517D01*
X701618Y946977D01*
X699078D01*
X701618D01*
X704157Y944438D01*
Y941899D01*
X701618Y939360D01*
X696539D01*
X694000Y941899D01*
X709235Y939360D02*
Y941899D01*
X711774D01*
Y939360D01*
X709235D01*
X747323Y952056D02*
X744784Y954595D01*
X739705D01*
X737166Y952056D01*
Y949517D01*
X739705Y946977D01*
X744784D01*
X747323Y944438D01*
Y941899D01*
X744784Y939360D01*
X739705D01*
X737166Y941899D01*
X760019Y954595D02*
X754940D01*
X752401Y952056D01*
Y941899D01*
X754940Y939360D01*
X760019D01*
X762558Y941899D01*
Y952056D01*
X760019Y954595D01*
X767636D02*
Y939360D01*
X777793D01*
X782871Y954595D02*
Y939360D01*
X790489D01*
X793028Y941899D01*
Y952056D01*
X790489Y954595D01*
X782871D01*
X808263D02*
X798106D01*
Y939360D01*
X808263D01*
X798106Y946977D02*
X803185D01*
X813341Y939360D02*
Y954595D01*
X820959D01*
X823498Y952056D01*
Y946977D01*
X820959Y944438D01*
X813341D01*
X818420D02*
X823498Y939360D01*
X843811D02*
Y954595D01*
X851429D01*
X853968Y952056D01*
Y946977D01*
X851429Y944438D01*
X843811D01*
X848890D02*
X853968Y939360D01*
X869203Y954595D02*
X859047D01*
Y939360D01*
X869203D01*
X859047Y946977D02*
X864125D01*
X884438Y952056D02*
X881899Y954595D01*
X876821D01*
X874282Y952056D01*
Y949517D01*
X876821Y946977D01*
X881899D01*
X884438Y944438D01*
Y941899D01*
X881899Y939360D01*
X876821D01*
X874282Y941899D01*
X889517Y954595D02*
X894595D01*
X892056D01*
Y939360D01*
X889517D01*
X894595D01*
X912369Y952056D02*
X909830Y954595D01*
X904752D01*
X902213Y952056D01*
Y949517D01*
X904752Y946977D01*
X909830D01*
X912369Y944438D01*
Y941899D01*
X909830Y939360D01*
X904752D01*
X902213Y941899D01*
X917448Y954595D02*
X927604D01*
X922526D01*
Y939360D01*
X932683Y949517D02*
X935222D01*
Y946977D01*
X932683D01*
Y949517D01*
Y941899D02*
X935222D01*
Y939360D01*
X932683D01*
Y941899D01*
X960614Y939360D02*
Y949517D01*
X965692Y954595D01*
X970770Y949517D01*
Y939360D01*
Y946977D01*
X960614D01*
X975849Y939360D02*
Y954595D01*
X983466D01*
X986005Y952056D01*
Y946977D01*
X983466Y944438D01*
X975849D01*
X991084Y939360D02*
Y954595D01*
X998701D01*
X1001241Y952056D01*
Y946977D01*
X998701Y944438D01*
X991084D01*
X1006319Y954595D02*
Y939360D01*
X1016476D01*
X1021554Y954595D02*
Y952056D01*
X1026632Y946977D01*
X1031711Y952056D01*
Y954595D01*
X1026632Y946977D02*
Y939360D01*
X1052024Y954595D02*
X1062181D01*
X1057103D01*
Y939360D01*
X1074877Y954595D02*
X1069798D01*
X1067259Y952056D01*
Y941899D01*
X1069798Y939360D01*
X1074877D01*
X1077416Y941899D01*
Y952056D01*
X1074877Y954595D01*
X1097729D02*
Y939360D01*
X1105347D01*
X1107886Y941899D01*
Y944438D01*
X1105347Y946977D01*
X1097729D01*
X1105347D01*
X1107886Y949517D01*
Y952056D01*
X1105347Y954595D01*
X1097729D01*
X1120582D02*
X1115504D01*
X1112964Y952056D01*
Y941899D01*
X1115504Y939360D01*
X1120582D01*
X1123121Y941899D01*
Y952056D01*
X1120582Y954595D01*
X1128199D02*
X1138356D01*
X1133278D01*
Y939360D01*
X1143435Y954595D02*
Y939360D01*
Y946977D01*
X1153591D01*
Y954595D01*
Y939360D01*
X1184062Y952056D02*
X1181522Y954595D01*
X1176444D01*
X1173905Y952056D01*
Y949517D01*
X1176444Y946977D01*
X1181522D01*
X1184062Y944438D01*
Y941899D01*
X1181522Y939360D01*
X1176444D01*
X1173905Y941899D01*
X1189140Y954595D02*
X1194218D01*
X1191679D01*
Y939360D01*
X1189140D01*
X1194218D01*
X1201836Y954595D02*
Y939360D01*
X1209453D01*
X1211992Y941899D01*
Y952056D01*
X1209453Y954595D01*
X1201836D01*
X1227227D02*
X1217071D01*
Y939360D01*
X1227227D01*
X1217071Y946977D02*
X1222149D01*
X1242463Y952056D02*
X1239923Y954595D01*
X1234845D01*
X1232306Y952056D01*
Y949517D01*
X1234845Y946977D01*
X1239923D01*
X1242463Y944438D01*
Y941899D01*
X1239923Y939360D01*
X1234845D01*
X1232306Y941899D01*
X1272933Y952056D02*
X1270394Y954595D01*
X1265315D01*
X1262776Y952056D01*
Y941899D01*
X1265315Y939360D01*
X1270394D01*
X1272933Y941899D01*
X1285629Y954595D02*
X1280550D01*
X1278011Y952056D01*
Y941899D01*
X1280550Y939360D01*
X1285629D01*
X1288168Y941899D01*
Y952056D01*
X1285629Y954595D01*
X1293246D02*
Y939360D01*
X1303403D01*
X1316099Y954595D02*
X1311020D01*
X1308481Y952056D01*
Y941899D01*
X1311020Y939360D01*
X1316099D01*
X1318638Y941899D01*
Y952056D01*
X1316099Y954595D01*
X1323716D02*
Y941899D01*
X1326255Y939360D01*
X1331334D01*
X1333873Y941899D01*
Y954595D01*
X1338951Y939360D02*
Y954595D01*
X1346569D01*
X1349108Y952056D01*
Y946977D01*
X1346569Y944438D01*
X1338951D01*
X1344030D02*
X1349108Y939360D01*
X1369422Y946977D02*
X1379578D01*
X1399892Y954595D02*
Y939360D01*
X1407509D01*
X1410048Y941899D01*
Y944438D01*
X1407509Y946977D01*
X1399892D01*
X1407509D01*
X1410048Y949517D01*
Y952056D01*
X1407509Y954595D01*
X1399892D01*
X1415127D02*
Y939360D01*
X1425284D01*
X1430362D02*
Y949517D01*
X1435440Y954595D01*
X1440518Y949517D01*
Y939360D01*
Y946977D01*
X1430362D01*
X1455754Y952056D02*
X1453214Y954595D01*
X1448136D01*
X1445597Y952056D01*
Y941899D01*
X1448136Y939360D01*
X1453214D01*
X1455754Y941899D01*
X1460832Y954595D02*
Y939360D01*
Y944438D01*
X1470989Y954595D01*
X1463371Y946977D01*
X1470989Y939360D01*
X694000Y1139360D02*
Y1154595D01*
X699078Y1149517D01*
X704157Y1154595D01*
Y1139360D01*
X709235D02*
X714313D01*
X711774D01*
Y1149517D01*
X709235D01*
X721931Y1139360D02*
Y1149517D01*
X729548D01*
X732088Y1146977D01*
Y1139360D01*
X737166D02*
X742244D01*
X739705D01*
Y1149517D01*
X737166D01*
X749862Y1139360D02*
Y1149517D01*
X752401D01*
X754940Y1146977D01*
Y1139360D01*
Y1146977D01*
X757479Y1149517D01*
X760019Y1146977D01*
Y1139360D01*
X765097Y1149517D02*
Y1141899D01*
X767636Y1139360D01*
X775254D01*
Y1149517D01*
X780332Y1139360D02*
Y1149517D01*
X782871D01*
X785410Y1146977D01*
Y1139360D01*
Y1146977D01*
X787950Y1149517D01*
X790489Y1146977D01*
Y1139360D01*
X810802Y1154595D02*
X820959D01*
X815881D01*
Y1139360D01*
X826037Y1149517D02*
Y1139360D01*
Y1144438D01*
X828577Y1146977D01*
X831116Y1149517D01*
X833655D01*
X843811D02*
X848890D01*
X851429Y1146977D01*
Y1139360D01*
X843811D01*
X841272Y1141899D01*
X843811Y1144438D01*
X851429D01*
X866664Y1149517D02*
X859047D01*
X856507Y1146977D01*
Y1141899D01*
X859047Y1139360D01*
X866664D01*
X871742D02*
Y1154595D01*
Y1144438D02*
X879360Y1149517D01*
X871742Y1144438D02*
X879360Y1139360D01*
X886978Y1149517D02*
X889517D01*
Y1146977D01*
X886978D01*
Y1149517D01*
Y1141899D02*
X889517D01*
Y1139360D01*
X886978D01*
Y1141899D01*
X914909Y1152056D02*
X917448Y1154595D01*
X922526D01*
X925065Y1152056D01*
Y1141899D01*
X922526Y1139360D01*
X917448D01*
X914909Y1141899D01*
Y1152056D01*
X930144Y1139360D02*
Y1141899D01*
X932683D01*
Y1139360D01*
X930144D01*
X952996D02*
X942840D01*
X952996Y1149517D01*
Y1152056D01*
X950457Y1154595D01*
X945379D01*
X942840Y1152056D01*
X958075Y1139360D02*
Y1149517D01*
X960614D01*
X963153Y1146977D01*
Y1139360D01*
Y1146977D01*
X965692Y1149517D01*
X968231Y1146977D01*
Y1139360D01*
X973310D02*
Y1149517D01*
X975849D01*
X978388Y1146977D01*
Y1139360D01*
Y1146977D01*
X980927Y1149517D01*
X983466Y1146977D01*
Y1139360D01*
X694000Y1114360D02*
Y1129595D01*
X699078Y1124517D01*
X704157Y1129595D01*
Y1114360D01*
X709235D02*
X714313D01*
X711774D01*
Y1124517D01*
X709235D01*
X721931Y1114360D02*
Y1124517D01*
X729548D01*
X732088Y1121977D01*
Y1114360D01*
X737166D02*
X742244D01*
X739705D01*
Y1124517D01*
X737166D01*
X749862Y1114360D02*
Y1124517D01*
X752401D01*
X754940Y1121977D01*
Y1114360D01*
Y1121977D01*
X757479Y1124517D01*
X760019Y1121977D01*
Y1114360D01*
X765097Y1124517D02*
Y1116899D01*
X767636Y1114360D01*
X775254D01*
Y1124517D01*
X780332Y1114360D02*
Y1124517D01*
X782871D01*
X785410Y1121977D01*
Y1114360D01*
Y1121977D01*
X787950Y1124517D01*
X790489Y1121977D01*
Y1114360D01*
X820959Y1127056D02*
X818420Y1129595D01*
X813341D01*
X810802Y1127056D01*
Y1116899D01*
X813341Y1114360D01*
X818420D01*
X820959Y1116899D01*
Y1121977D01*
X815881D01*
X828577Y1124517D02*
X833655D01*
X836194Y1121977D01*
Y1114360D01*
X828577D01*
X826037Y1116899D01*
X828577Y1119438D01*
X836194D01*
X841272Y1109282D02*
Y1124517D01*
X848890D01*
X851429Y1121977D01*
Y1116899D01*
X848890Y1114360D01*
X841272D01*
X856507Y1124517D02*
X859047D01*
Y1121977D01*
X856507D01*
Y1124517D01*
Y1116899D02*
X859047D01*
Y1114360D01*
X856507D01*
Y1116899D01*
X884438Y1127056D02*
X886978Y1129595D01*
X892056D01*
X894595Y1127056D01*
Y1116899D01*
X892056Y1114360D01*
X886978D01*
X884438Y1116899D01*
Y1127056D01*
X899673Y1114360D02*
Y1116899D01*
X902213D01*
Y1114360D01*
X899673D01*
X912369D02*
X917448D01*
X914909D01*
Y1129595D01*
X912369Y1127056D01*
X925065D02*
X927604Y1129595D01*
X932683D01*
X935222Y1127056D01*
Y1124517D01*
X932683Y1121977D01*
X930144D01*
X932683D01*
X935222Y1119438D01*
Y1116899D01*
X932683Y1114360D01*
X927604D01*
X925065Y1116899D01*
X940300Y1114360D02*
Y1124517D01*
X942840D01*
X945379Y1121977D01*
Y1114360D01*
Y1121977D01*
X947918Y1124517D01*
X950457Y1121977D01*
Y1114360D01*
X955535D02*
Y1124517D01*
X958075D01*
X960614Y1121977D01*
Y1114360D01*
Y1121977D01*
X963153Y1124517D01*
X965692Y1121977D01*
Y1114360D01*
X694000Y1179595D02*
Y1164360D01*
X701618D01*
X704157Y1166899D01*
Y1169438D01*
X701618Y1171977D01*
X694000D01*
X701618D01*
X704157Y1174517D01*
Y1177056D01*
X701618Y1179595D01*
X694000D01*
X711774Y1164360D02*
X716853D01*
X719392Y1166899D01*
Y1171977D01*
X716853Y1174517D01*
X711774D01*
X709235Y1171977D01*
Y1166899D01*
X711774Y1164360D01*
X727009Y1174517D02*
X732088D01*
X734627Y1171977D01*
Y1164360D01*
X727009D01*
X724470Y1166899D01*
X727009Y1169438D01*
X734627D01*
X739705Y1174517D02*
Y1164360D01*
Y1169438D01*
X742244Y1171977D01*
X744784Y1174517D01*
X747323D01*
X765097Y1179595D02*
Y1164360D01*
X757479D01*
X754940Y1166899D01*
Y1171977D01*
X757479Y1174517D01*
X765097D01*
X785410Y1164360D02*
X790489D01*
X787950D01*
Y1174517D01*
X785410D01*
X798106Y1164360D02*
Y1174517D01*
X805724D01*
X808263Y1171977D01*
Y1164360D01*
X815881D02*
Y1177056D01*
Y1171977D01*
X813341D01*
X818420D01*
X815881D01*
Y1177056D01*
X818420Y1179595D01*
X828577Y1164360D02*
X833655D01*
X836194Y1166899D01*
Y1171977D01*
X833655Y1174517D01*
X828577D01*
X826037Y1171977D01*
Y1166899D01*
X828577Y1164360D01*
X704157Y989360D02*
X694000D01*
X704157Y999517D01*
Y1002056D01*
X701618Y1004595D01*
X696539D01*
X694000Y1002056D01*
X709235Y989360D02*
Y991899D01*
X711774D01*
Y989360D01*
X709235D01*
X737166Y1004595D02*
Y989360D01*
X744784D01*
X747323Y991899D01*
Y994438D01*
X744784Y996977D01*
X737166D01*
X744784D01*
X747323Y999517D01*
Y1002056D01*
X744784Y1004595D01*
X737166D01*
X760019D02*
X754940D01*
X752401Y1002056D01*
Y991899D01*
X754940Y989360D01*
X760019D01*
X762558Y991899D01*
Y1002056D01*
X760019Y1004595D01*
X767636Y989360D02*
Y999517D01*
X772714Y1004595D01*
X777793Y999517D01*
Y989360D01*
Y996977D01*
X767636D01*
X782871Y989360D02*
Y1004595D01*
X790489D01*
X793028Y1002056D01*
Y996977D01*
X790489Y994438D01*
X782871D01*
X787950D02*
X793028Y989360D01*
X798106Y1004595D02*
Y989360D01*
X805724D01*
X808263Y991899D01*
Y1002056D01*
X805724Y1004595D01*
X798106D01*
X838733D02*
X828577D01*
Y996977D01*
X833655D01*
X828577D01*
Y989360D01*
X843811Y1004595D02*
X848890D01*
X846351D01*
Y989360D01*
X843811D01*
X848890D01*
X856507D02*
Y1004595D01*
X866664Y989360D01*
Y1004595D01*
X871742D02*
X876821D01*
X874282D01*
Y989360D01*
X871742D01*
X876821D01*
X894595Y1002056D02*
X892056Y1004595D01*
X886978D01*
X884438Y1002056D01*
Y999517D01*
X886978Y996977D01*
X892056D01*
X894595Y994438D01*
Y991899D01*
X892056Y989360D01*
X886978D01*
X884438Y991899D01*
X899673Y1004595D02*
Y989360D01*
Y996977D01*
X909830D01*
Y1004595D01*
Y989360D01*
X914909Y999517D02*
X917448D01*
Y996977D01*
X914909D01*
Y999517D01*
Y991899D02*
X917448D01*
Y989360D01*
X914909D01*
Y991899D01*
X958075Y1004595D02*
X963153D01*
X960614D01*
Y989360D01*
X958075D01*
X963153D01*
X980927Y1002056D02*
X978388Y1004595D01*
X973310D01*
X970770Y1002056D01*
Y999517D01*
X973310Y996977D01*
X978388D01*
X980927Y994438D01*
Y991899D01*
X978388Y989360D01*
X973310D01*
X970770Y991899D01*
X1001241Y989360D02*
Y1004595D01*
X1011397Y989360D01*
Y1004595D01*
X1024093D02*
X1019015D01*
X1016476Y1002056D01*
Y991899D01*
X1019015Y989360D01*
X1024093D01*
X1026632Y991899D01*
Y1002056D01*
X1024093Y1004595D01*
X1031711D02*
X1041868D01*
X1036789D01*
Y989360D01*
X1057103Y1004595D02*
X1046946D01*
Y989360D01*
X1057103D01*
X1046946Y996977D02*
X1052024D01*
X1087573Y1002056D02*
X1085033Y1004595D01*
X1079955D01*
X1077416Y1002056D01*
Y991899D01*
X1079955Y989360D01*
X1085033D01*
X1087573Y991899D01*
X1092651Y989360D02*
Y1004595D01*
X1100269D01*
X1102808Y1002056D01*
Y996977D01*
X1100269Y994438D01*
X1092651D01*
X1097729D02*
X1102808Y989360D01*
X1107886Y1004595D02*
X1112964D01*
X1110425D01*
Y989360D01*
X1107886D01*
X1112964D01*
X1120582Y1004595D02*
X1130739D01*
X1125660D01*
Y989360D01*
X1135817Y1004595D02*
X1140895D01*
X1138356D01*
Y989360D01*
X1135817D01*
X1140895D01*
X1158670Y1002056D02*
X1156131Y1004595D01*
X1151052D01*
X1148513Y1002056D01*
Y991899D01*
X1151052Y989360D01*
X1156131D01*
X1158670Y991899D01*
X1163748Y989360D02*
Y999517D01*
X1168826Y1004595D01*
X1173905Y999517D01*
Y989360D01*
Y996977D01*
X1163748D01*
X1178983Y1004595D02*
Y989360D01*
X1189140D01*
X694000Y1039360D02*
X699078D01*
X696539D01*
Y1054595D01*
X694000Y1052056D01*
X706696Y1039360D02*
Y1041899D01*
X709235D01*
Y1039360D01*
X706696D01*
X744784Y1054595D02*
X734627D01*
Y1046977D01*
X739705D01*
X734627D01*
Y1039360D01*
X749862Y1054595D02*
X754940D01*
X752401D01*
Y1039360D01*
X749862D01*
X754940D01*
X762558D02*
Y1054595D01*
X772714Y1039360D01*
Y1054595D01*
X777793D02*
X782871D01*
X780332D01*
Y1039360D01*
X777793D01*
X782871D01*
X800646Y1052056D02*
X798106Y1054595D01*
X793028D01*
X790489Y1052056D01*
Y1049517D01*
X793028Y1046977D01*
X798106D01*
X800646Y1044438D01*
Y1041899D01*
X798106Y1039360D01*
X793028D01*
X790489Y1041899D01*
X805724Y1054595D02*
Y1039360D01*
Y1046977D01*
X815881D01*
Y1054595D01*
Y1039360D01*
X831116Y1054595D02*
X820959D01*
Y1039360D01*
X831116D01*
X820959Y1046977D02*
X826037D01*
X836194Y1054595D02*
Y1039360D01*
X843811D01*
X846351Y1041899D01*
Y1052056D01*
X843811Y1054595D01*
X836194D01*
X866664Y1039360D02*
Y1054595D01*
X874282D01*
X876821Y1052056D01*
Y1046977D01*
X874282Y1044438D01*
X866664D01*
X881899Y1039360D02*
Y1049517D01*
X886978Y1054595D01*
X892056Y1049517D01*
Y1039360D01*
Y1046977D01*
X881899D01*
X897134Y1039360D02*
Y1054595D01*
X907291Y1039360D01*
Y1054595D01*
X922526D02*
X912369D01*
Y1039360D01*
X922526D01*
X912369Y1046977D02*
X917448D01*
X927604Y1054595D02*
Y1039360D01*
X937761D01*
X958075Y1054595D02*
X968231D01*
X963153D01*
Y1039360D01*
X973310Y1054595D02*
Y1039360D01*
Y1046977D01*
X983466D01*
Y1054595D01*
Y1039360D01*
X988545Y1054595D02*
X993623D01*
X991084D01*
Y1039360D01*
X988545D01*
X993623D01*
X1011397Y1052056D02*
X1008858Y1054595D01*
X1003780D01*
X1001241Y1052056D01*
Y1041899D01*
X1003780Y1039360D01*
X1008858D01*
X1011397Y1041899D01*
X1016476Y1054595D02*
Y1039360D01*
Y1044438D01*
X1026632Y1054595D01*
X1019015Y1046977D01*
X1026632Y1039360D01*
X1031711D02*
Y1054595D01*
X1041868Y1039360D01*
Y1054595D01*
X1057103D02*
X1046946D01*
Y1039360D01*
X1057103D01*
X1046946Y1046977D02*
X1052024D01*
X1072338Y1052056D02*
X1069798Y1054595D01*
X1064720D01*
X1062181Y1052056D01*
Y1049517D01*
X1064720Y1046977D01*
X1069798D01*
X1072338Y1044438D01*
Y1041899D01*
X1069798Y1039360D01*
X1064720D01*
X1062181Y1041899D01*
X1087573Y1052056D02*
X1085033Y1054595D01*
X1079955D01*
X1077416Y1052056D01*
Y1049517D01*
X1079955Y1046977D01*
X1085033D01*
X1087573Y1044438D01*
Y1041899D01*
X1085033Y1039360D01*
X1079955D01*
X1077416Y1041899D01*
X1107886Y1054595D02*
X1112964D01*
X1110425D01*
Y1039360D01*
X1107886D01*
X1112964D01*
X1130739Y1052056D02*
X1128199Y1054595D01*
X1123121D01*
X1120582Y1052056D01*
Y1049517D01*
X1123121Y1046977D01*
X1128199D01*
X1130739Y1044438D01*
Y1041899D01*
X1128199Y1039360D01*
X1123121D01*
X1120582Y1041899D01*
X1151052Y1039360D02*
Y1054595D01*
X1161209Y1039360D01*
Y1054595D01*
X1173905D02*
X1168826D01*
X1166287Y1052056D01*
Y1041899D01*
X1168826Y1039360D01*
X1173905D01*
X1176444Y1041899D01*
Y1052056D01*
X1173905Y1054595D01*
X1181522D02*
X1191679D01*
X1186601D01*
Y1039360D01*
X1222149Y1052056D02*
X1219610Y1054595D01*
X1214532D01*
X1211992Y1052056D01*
Y1041899D01*
X1214532Y1039360D01*
X1219610D01*
X1222149Y1041899D01*
X1227227Y1039360D02*
Y1054595D01*
X1234845D01*
X1237384Y1052056D01*
Y1046977D01*
X1234845Y1044438D01*
X1227227D01*
X1232306D02*
X1237384Y1039360D01*
X1242463Y1054595D02*
X1247541D01*
X1245002D01*
Y1039360D01*
X1242463D01*
X1247541D01*
X1255158Y1054595D02*
X1265315D01*
X1260237D01*
Y1039360D01*
X1270394Y1054595D02*
X1275472D01*
X1272933D01*
Y1039360D01*
X1270394D01*
X1275472D01*
X1293246Y1052056D02*
X1290707Y1054595D01*
X1285629D01*
X1283089Y1052056D01*
Y1041899D01*
X1285629Y1039360D01*
X1290707D01*
X1293246Y1041899D01*
X1298324Y1039360D02*
Y1049517D01*
X1303403Y1054595D01*
X1308481Y1049517D01*
Y1039360D01*
Y1046977D01*
X1298324D01*
X1313560Y1054595D02*
Y1039360D01*
X1323716D01*
X1328795Y1049517D02*
X1331334D01*
Y1046977D01*
X1328795D01*
Y1049517D01*
Y1041899D02*
X1331334D01*
Y1039360D01*
X1328795D01*
Y1041899D01*
X1356726Y1054595D02*
X1366882D01*
X1361804D01*
Y1039360D01*
X1379578Y1054595D02*
X1374500D01*
X1371961Y1052056D01*
Y1041899D01*
X1374500Y1039360D01*
X1379578D01*
X1382117Y1041899D01*
Y1052056D01*
X1379578Y1054595D01*
X1402431D02*
Y1039360D01*
X1410048D01*
X1412587Y1041899D01*
Y1044438D01*
X1410048Y1046977D01*
X1402431D01*
X1410048D01*
X1412587Y1049517D01*
Y1052056D01*
X1410048Y1054595D01*
X1402431D01*
X1427823D02*
X1417666D01*
Y1039360D01*
X1427823D01*
X1417666Y1046977D02*
X1422744D01*
X1448136Y1039360D02*
Y1049517D01*
X1453214Y1054595D01*
X1458293Y1049517D01*
Y1039360D01*
Y1046977D01*
X1448136D01*
X1463371Y1039360D02*
Y1054595D01*
X1470989D01*
X1473528Y1052056D01*
Y1046977D01*
X1470989Y1044438D01*
X1463371D01*
X1478606Y1039360D02*
Y1054595D01*
X1486224D01*
X1488763Y1052056D01*
Y1046977D01*
X1486224Y1044438D01*
X1478606D01*
X1493841Y1039360D02*
Y1054595D01*
X1501459D01*
X1503998Y1052056D01*
Y1046977D01*
X1501459Y1044438D01*
X1493841D01*
X1498920D02*
X1503998Y1039360D01*
X1516694Y1054595D02*
X1511615D01*
X1509076Y1052056D01*
Y1041899D01*
X1511615Y1039360D01*
X1516694D01*
X1519233Y1041899D01*
Y1052056D01*
X1516694Y1054595D01*
X1524311D02*
X1534468Y1039360D01*
Y1054595D02*
X1524311Y1039360D01*
X1539547Y1054595D02*
X1544625D01*
X1542086D01*
Y1039360D01*
X1539547D01*
X1544625D01*
X1552242D02*
Y1054595D01*
X1557321Y1049517D01*
X1562399Y1054595D01*
Y1039360D01*
X1567477D02*
Y1049517D01*
X1572556Y1054595D01*
X1577634Y1049517D01*
Y1039360D01*
Y1046977D01*
X1567477D01*
X1582713Y1054595D02*
X1592869D01*
X1587791D01*
Y1039360D01*
X1608104Y1054595D02*
X1597948D01*
Y1039360D01*
X1608104D01*
X1597948Y1046977D02*
X1603026D01*
X1613183Y1054595D02*
Y1039360D01*
X1623339D01*
X1628418Y1054595D02*
Y1052056D01*
X1633496Y1046977D01*
X1638574Y1052056D01*
Y1054595D01*
X1633496Y1046977D02*
Y1039360D01*
X1658888D02*
X1663966D01*
X1661427D01*
Y1054595D01*
X1658888Y1052056D01*
X1671584Y1039360D02*
Y1041899D01*
X1674123D01*
Y1039360D01*
X1671584D01*
X1694436Y1054595D02*
X1689358Y1052056D01*
X1684280Y1046977D01*
Y1041899D01*
X1686819Y1039360D01*
X1691897D01*
X1694436Y1041899D01*
Y1044438D01*
X1691897Y1046977D01*
X1684280D01*
X1699515Y1039360D02*
Y1049517D01*
X1702054D01*
X1704593Y1046977D01*
Y1039360D01*
Y1046977D01*
X1707132Y1049517D01*
X1709671Y1046977D01*
Y1039360D01*
X1714750D02*
Y1049517D01*
X1717289D01*
X1719828Y1046977D01*
Y1039360D01*
Y1046977D01*
X1722367Y1049517D01*
X1724906Y1046977D01*
Y1039360D01*
X694000Y1089360D02*
Y1104595D01*
X699078Y1099517D01*
X704157Y1104595D01*
Y1089360D01*
X709235D02*
X714313D01*
X711774D01*
Y1099517D01*
X709235D01*
X721931Y1089360D02*
Y1099517D01*
X729548D01*
X732088Y1096977D01*
Y1089360D01*
X737166D02*
X742244D01*
X739705D01*
Y1099517D01*
X737166D01*
X749862Y1089360D02*
Y1099517D01*
X752401D01*
X754940Y1096977D01*
Y1089360D01*
Y1096977D01*
X757479Y1099517D01*
X760019Y1096977D01*
Y1089360D01*
X765097Y1099517D02*
Y1091899D01*
X767636Y1089360D01*
X775254D01*
Y1099517D01*
X780332Y1089360D02*
Y1099517D01*
X782871D01*
X785410Y1096977D01*
Y1089360D01*
Y1096977D01*
X787950Y1099517D01*
X790489Y1096977D01*
Y1089360D01*
X810802Y1104595D02*
X820959D01*
X815881D01*
Y1089360D01*
X826037Y1104595D02*
Y1089360D01*
Y1096977D01*
X828577Y1099517D01*
X833655D01*
X836194Y1096977D01*
Y1089360D01*
X841272Y1099517D02*
Y1089360D01*
Y1094438D01*
X843811Y1096977D01*
X846351Y1099517D01*
X848890D01*
X859047Y1089360D02*
X864125D01*
X866664Y1091899D01*
Y1096977D01*
X864125Y1099517D01*
X859047D01*
X856507Y1096977D01*
Y1091899D01*
X859047Y1089360D01*
X871742Y1099517D02*
Y1091899D01*
X874282Y1089360D01*
X881899D01*
Y1099517D01*
X892056Y1084282D02*
X894595D01*
X897134Y1086821D01*
Y1099517D01*
X889517D01*
X886978Y1096977D01*
Y1091899D01*
X889517Y1089360D01*
X897134D01*
X902213Y1104595D02*
Y1089360D01*
Y1096977D01*
X904752Y1099517D01*
X909830D01*
X912369Y1096977D01*
Y1089360D01*
X932683Y1104595D02*
Y1089360D01*
Y1096977D01*
X942840D01*
Y1104595D01*
Y1089360D01*
X950457D02*
X955535D01*
X958075Y1091899D01*
Y1096977D01*
X955535Y1099517D01*
X950457D01*
X947918Y1096977D01*
Y1091899D01*
X950457Y1089360D01*
X963153D02*
X968231D01*
X965692D01*
Y1104595D01*
X963153D01*
X983466Y1089360D02*
X978388D01*
X975849Y1091899D01*
Y1096977D01*
X978388Y1099517D01*
X983466D01*
X986005Y1096977D01*
Y1094438D01*
X975849D01*
X1006319Y1104595D02*
Y1094438D01*
X1011397Y1089360D01*
X1016476Y1094438D01*
Y1104595D01*
X1021554D02*
X1026632D01*
X1024093D01*
Y1089360D01*
X1021554D01*
X1026632D01*
X1034250D02*
Y1099517D01*
X1039328Y1104595D01*
X1044407Y1099517D01*
Y1089360D01*
Y1096977D01*
X1034250D01*
X1049485Y1099517D02*
X1052024D01*
Y1096977D01*
X1049485D01*
Y1099517D01*
Y1091899D02*
X1052024D01*
Y1089360D01*
X1049485D01*
Y1091899D01*
X1077416Y1102056D02*
X1079955Y1104595D01*
X1085033D01*
X1087573Y1102056D01*
Y1091899D01*
X1085033Y1089360D01*
X1079955D01*
X1077416Y1091899D01*
Y1102056D01*
X1092651Y1089360D02*
Y1091899D01*
X1095190D01*
Y1089360D01*
X1092651D01*
X1115504Y1104595D02*
X1105347D01*
Y1096977D01*
X1110425Y1099517D01*
X1112964D01*
X1115504Y1096977D01*
Y1091899D01*
X1112964Y1089360D01*
X1107886D01*
X1105347Y1091899D01*
X1120582Y1089360D02*
Y1099517D01*
X1123121D01*
X1125660Y1096977D01*
Y1089360D01*
Y1096977D01*
X1128199Y1099517D01*
X1130739Y1096977D01*
Y1089360D01*
X1135817D02*
Y1099517D01*
X1138356D01*
X1140895Y1096977D01*
Y1089360D01*
Y1096977D01*
X1143435Y1099517D01*
X1145974Y1096977D01*
Y1089360D01*
X1171366D02*
X1166287Y1094438D01*
Y1099517D01*
X1171366Y1104595D01*
X1178983Y1084282D02*
Y1099517D01*
X1186601D01*
X1189140Y1096977D01*
Y1091899D01*
X1186601Y1089360D01*
X1178983D01*
X1196757Y1099517D02*
X1201836D01*
X1204375Y1096977D01*
Y1089360D01*
X1196757D01*
X1194218Y1091899D01*
X1196757Y1094438D01*
X1204375D01*
X1219610Y1104595D02*
Y1089360D01*
X1211992D01*
X1209453Y1091899D01*
Y1096977D01*
X1211992Y1099517D01*
X1219610D01*
X1224688Y1089360D02*
X1229767Y1094438D01*
Y1099517D01*
X1224688Y1104595D01*
X1252619Y1089360D02*
X1262776Y1099517D01*
X1283089Y1102056D02*
X1285629Y1104595D01*
X1290707D01*
X1293246Y1102056D01*
Y1091899D01*
X1290707Y1089360D01*
X1285629D01*
X1283089Y1091899D01*
Y1102056D01*
X1298324Y1089360D02*
Y1091899D01*
X1300864D01*
Y1089360D01*
X1298324D01*
X1311020Y1102056D02*
X1313560Y1104595D01*
X1318638D01*
X1321177Y1102056D01*
Y1099517D01*
X1318638Y1096977D01*
X1316099D01*
X1318638D01*
X1321177Y1094438D01*
Y1091899D01*
X1318638Y1089360D01*
X1313560D01*
X1311020Y1091899D01*
X1326255Y1089360D02*
Y1099517D01*
X1328795D01*
X1331334Y1096977D01*
Y1089360D01*
Y1096977D01*
X1333873Y1099517D01*
X1336412Y1096977D01*
Y1089360D01*
X1341490D02*
Y1099517D01*
X1344030D01*
X1346569Y1096977D01*
Y1089360D01*
Y1096977D01*
X1349108Y1099517D01*
X1351647Y1096977D01*
Y1089360D01*
X1377039D02*
X1371961Y1094438D01*
Y1099517D01*
X1377039Y1104595D01*
X1394813D02*
Y1089360D01*
X1387196D01*
X1384657Y1091899D01*
Y1096977D01*
X1387196Y1099517D01*
X1394813D01*
X1399892D02*
Y1089360D01*
Y1094438D01*
X1402431Y1096977D01*
X1404970Y1099517D01*
X1407509D01*
X1415127Y1089360D02*
X1420205D01*
X1417666D01*
Y1099517D01*
X1415127D01*
X1427823Y1089360D02*
X1432901D01*
X1430362D01*
Y1104595D01*
X1427823D01*
X1440518Y1089360D02*
X1445597D01*
X1443058D01*
Y1104595D01*
X1440518D01*
X1453214Y1089360D02*
X1458293Y1094438D01*
Y1099517D01*
X1453214Y1104595D01*
X1465910Y1089360D02*
Y1091899D01*
X1468449D01*
Y1089360D01*
X1465910D01*
X161977Y-552883D02*
X154359D01*
X151820Y-555423D01*
Y-560501D01*
X154359Y-563040D01*
X161977D01*
X167055Y-547805D02*
Y-563040D01*
Y-555423D01*
X169594Y-552883D01*
X174673D01*
X177212Y-555423D01*
Y-563040D01*
X184829Y-552883D02*
X189908D01*
X192447Y-555423D01*
Y-563040D01*
X184829D01*
X182290Y-560501D01*
X184829Y-557962D01*
X192447D01*
X197525Y-547805D02*
Y-563040D01*
X205143D01*
X207682Y-560501D01*
Y-557962D01*
Y-555423D01*
X205143Y-552883D01*
X197525D01*
X212760Y-563040D02*
X217839D01*
X215299D01*
Y-552883D01*
X212760D01*
X225456D02*
Y-563040D01*
Y-557962D01*
X227995Y-555423D01*
X230534Y-552883D01*
X233074D01*
X243230D02*
X248309D01*
X250848Y-555423D01*
Y-563040D01*
X243230D01*
X240691Y-560501D01*
X243230Y-557962D01*
X250848D01*
X261005Y-568118D02*
X263544D01*
X266083Y-565579D01*
Y-552883D01*
X258465D01*
X255926Y-555423D01*
Y-560501D01*
X258465Y-563040D01*
X266083D01*
X271161Y-547805D02*
Y-563040D01*
Y-555423D01*
X273701Y-552883D01*
X278779D01*
X281318Y-555423D01*
Y-563040D01*
X288936Y-552883D02*
X294014D01*
X296553Y-555423D01*
Y-563040D01*
X288936D01*
X286397Y-560501D01*
X288936Y-557962D01*
X296553D01*
X301632Y-563040D02*
Y-552883D01*
X309249D01*
X311788Y-555423D01*
Y-563040D01*
X319406D02*
X324484D01*
X327023Y-560501D01*
Y-555423D01*
X324484Y-552883D01*
X319406D01*
X316867Y-555423D01*
Y-560501D01*
X319406Y-563040D01*
X332102Y-552883D02*
Y-560501D01*
X334641Y-563040D01*
X342258D01*
Y-552883D01*
X354954Y-563040D02*
Y-547805D01*
X347337Y-555423D01*
X357494D01*
X372729Y-547805D02*
X362572D01*
Y-555423D01*
X367650Y-552883D01*
X370189D01*
X372729Y-555423D01*
Y-560501D01*
X370189Y-563040D01*
X365111D01*
X362572Y-560501D01*
X385424Y-557962D02*
Y-555423D01*
X382885D01*
Y-557962D01*
X385424D01*
X387964Y-555423D01*
Y-550344D01*
X385424Y-547805D01*
X380346D01*
X377807Y-550344D01*
Y-560501D01*
X380346Y-563040D01*
X387964D01*
X398120Y-568118D02*
X400659D01*
X403199Y-565579D01*
Y-552883D01*
X395581D01*
X393042Y-555423D01*
Y-560501D01*
X395581Y-563040D01*
X403199D01*
X408277D02*
Y-552883D01*
X410816D01*
X413355Y-555423D01*
Y-563040D01*
Y-555423D01*
X415895Y-552883D01*
X418434Y-555423D01*
Y-563040D01*
X426051Y-552883D02*
X431130D01*
X433669Y-555423D01*
Y-563040D01*
X426051D01*
X423512Y-560501D01*
X426051Y-557962D01*
X433669D01*
X438747Y-563040D02*
X443826D01*
X441286D01*
Y-552883D01*
X438747D01*
X451443Y-563040D02*
X456521D01*
X453982D01*
Y-547805D01*
X451443D01*
X464139Y-563040D02*
Y-560501D01*
X466678D01*
Y-563040D01*
X464139D01*
X486992Y-552883D02*
X479374D01*
X476835Y-555423D01*
Y-560501D01*
X479374Y-563040D01*
X486992D01*
X494609D02*
X499688D01*
X502227Y-560501D01*
Y-555423D01*
X499688Y-552883D01*
X494609D01*
X492070Y-555423D01*
Y-560501D01*
X494609Y-563040D01*
X507305D02*
Y-552883D01*
X509844D01*
X512383Y-555423D01*
Y-563040D01*
Y-555423D01*
X514922Y-552883D01*
X517462Y-555423D01*
Y-563040D01*
X11977Y-550344D02*
X9438Y-547805D01*
X4359D01*
X1820Y-550344D01*
Y-560501D01*
X4359Y-563040D01*
X9438D01*
X11977Y-560501D01*
X19594Y-563040D02*
X24673D01*
X27212Y-560501D01*
Y-555423D01*
X24673Y-552883D01*
X19594D01*
X17055Y-555423D01*
Y-560501D01*
X19594Y-563040D01*
X32290D02*
Y-552883D01*
X39908D01*
X42447Y-555423D01*
Y-563040D01*
X50064Y-550344D02*
Y-552883D01*
X47525D01*
X52604D01*
X50064D01*
Y-560501D01*
X52604Y-563040D01*
X62760Y-552883D02*
X67839D01*
X70378Y-555423D01*
Y-563040D01*
X62760D01*
X60221Y-560501D01*
X62760Y-557962D01*
X70378D01*
X85613Y-552883D02*
X77995D01*
X75456Y-555423D01*
Y-560501D01*
X77995Y-563040D01*
X85613D01*
X93230Y-550344D02*
Y-552883D01*
X90691D01*
X95770D01*
X93230D01*
Y-560501D01*
X95770Y-563040D01*
X103387Y-552883D02*
X105926D01*
Y-555423D01*
X103387D01*
Y-552883D01*
Y-560501D02*
X105926D01*
Y-563040D01*
X103387D01*
Y-560501D01*
X2540Y1126656D02*
X12697Y1116499D01*
X2540D02*
X12697Y1126656D01*
X2540Y1121578D02*
X12697D01*
X7618Y1116499D02*
Y1126656D01*
X17775Y1113960D02*
Y1116499D01*
X20314D01*
Y1113960D01*
X17775D01*
X40628Y1126656D02*
X38089Y1129195D01*
X33010D01*
X30471Y1126656D01*
Y1116499D01*
X33010Y1113960D01*
X38089D01*
X40628Y1116499D01*
Y1121578D01*
X35549D01*
X45706Y1129195D02*
X55863D01*
X50784D01*
Y1113960D01*
X68559Y1129195D02*
X63480D01*
X60941Y1126656D01*
Y1116499D01*
X63480Y1113960D01*
X68559D01*
X71098Y1116499D01*
Y1126656D01*
X68559Y1129195D01*
X91411Y1121578D02*
X101568D01*
X121881Y1129195D02*
X132038D01*
X126960D01*
Y1113960D01*
X139656D02*
X144734D01*
X147273Y1116499D01*
Y1121578D01*
X144734Y1124117D01*
X139656D01*
X137116Y1121578D01*
Y1116499D01*
X139656Y1113960D01*
X152352Y1108882D02*
Y1124117D01*
X159969D01*
X162508Y1121578D01*
Y1116499D01*
X159969Y1113960D01*
X152352D01*
X190439Y1129195D02*
X185361D01*
X182822Y1126656D01*
Y1116499D01*
X185361Y1113960D01*
X190439D01*
X192978Y1116499D01*
Y1126656D01*
X190439Y1129195D01*
X198057Y1124117D02*
X203135Y1113960D01*
X208214Y1124117D01*
X220909Y1113960D02*
X215831D01*
X213292Y1116499D01*
Y1121578D01*
X215831Y1124117D01*
X220909D01*
X223449Y1121578D01*
Y1119038D01*
X213292D01*
X228527Y1124117D02*
Y1113960D01*
Y1119038D01*
X231066Y1121578D01*
X233605Y1124117D01*
X236144D01*
X243762Y1113960D02*
X248840D01*
X246301D01*
Y1129195D01*
X243762D01*
X258997Y1124117D02*
X264075D01*
X266615Y1121578D01*
Y1113960D01*
X258997D01*
X256458Y1116499D01*
X258997Y1119038D01*
X266615D01*
X271693Y1124117D02*
Y1116499D01*
X274232Y1113960D01*
X281850D01*
Y1111421D01*
X279310Y1108882D01*
X276771D01*
X281850Y1113960D02*
Y1124117D01*
X304702Y1113960D02*
X309781D01*
X312320Y1116499D01*
Y1121578D01*
X309781Y1124117D01*
X304702D01*
X302163Y1121578D01*
Y1116499D01*
X304702Y1113960D01*
X317398D02*
Y1129195D01*
Y1119038D02*
X325016Y1124117D01*
X317398Y1119038D02*
X325016Y1113960D01*
X2540Y976656D02*
X12697Y966499D01*
X2540D02*
X12697Y976656D01*
X2540Y971578D02*
X12697D01*
X7618Y966499D02*
Y976656D01*
X17775Y963960D02*
Y966499D01*
X20314D01*
Y963960D01*
X17775D01*
X40628Y976656D02*
X38089Y979195D01*
X33010D01*
X30471Y976656D01*
Y966499D01*
X33010Y963960D01*
X38089D01*
X40628Y966499D01*
Y971578D01*
X35549D01*
X45706Y979195D02*
Y963960D01*
X53324D01*
X55863Y966499D01*
Y969038D01*
X53324Y971578D01*
X45706D01*
X53324D01*
X55863Y974117D01*
Y976656D01*
X53324Y979195D01*
X45706D01*
X68559D02*
X63480D01*
X60941Y976656D01*
Y966499D01*
X63480Y963960D01*
X68559D01*
X71098Y966499D01*
Y976656D01*
X68559Y979195D01*
X91411Y971578D02*
X101568D01*
X121881Y979195D02*
Y963960D01*
X129499D01*
X132038Y966499D01*
Y969038D01*
X129499Y971578D01*
X121881D01*
X129499D01*
X132038Y974117D01*
Y976656D01*
X129499Y979195D01*
X121881D01*
X139656Y963960D02*
X144734D01*
X147273Y966499D01*
Y971578D01*
X144734Y974117D01*
X139656D01*
X137116Y971578D01*
Y966499D01*
X139656Y963960D01*
X154891Y976656D02*
Y974117D01*
X152352D01*
X157430D01*
X154891D01*
Y966499D01*
X157430Y963960D01*
X167587Y976656D02*
Y974117D01*
X165047D01*
X170126D01*
X167587D01*
Y966499D01*
X170126Y963960D01*
X180282D02*
X185361D01*
X187900Y966499D01*
Y971578D01*
X185361Y974117D01*
X180282D01*
X177743Y971578D01*
Y966499D01*
X180282Y963960D01*
X192978D02*
Y974117D01*
X195518D01*
X198057Y971578D01*
Y963960D01*
Y971578D01*
X200596Y974117D01*
X203135Y971578D01*
Y963960D01*
X231066Y979195D02*
X225988D01*
X223449Y976656D01*
Y966499D01*
X225988Y963960D01*
X231066D01*
X233605Y966499D01*
Y976656D01*
X231066Y979195D01*
X238684Y974117D02*
X243762Y963960D01*
X248840Y974117D01*
X261536Y963960D02*
X256458D01*
X253919Y966499D01*
Y971578D01*
X256458Y974117D01*
X261536D01*
X264075Y971578D01*
Y969038D01*
X253919D01*
X269154Y974117D02*
Y963960D01*
Y969038D01*
X271693Y971578D01*
X274232Y974117D01*
X276771D01*
X284389Y963960D02*
X289467D01*
X286928D01*
Y979195D01*
X284389D01*
X299624Y974117D02*
X304702D01*
X307241Y971578D01*
Y963960D01*
X299624D01*
X297085Y966499D01*
X299624Y969038D01*
X307241D01*
X312320Y974117D02*
Y966499D01*
X314859Y963960D01*
X322477D01*
Y961421D01*
X319937Y958882D01*
X317398D01*
X322477Y963960D02*
Y974117D01*
X345329Y963960D02*
X350407D01*
X352947Y966499D01*
Y971578D01*
X350407Y974117D01*
X345329D01*
X342790Y971578D01*
Y966499D01*
X345329Y963960D01*
X358025D02*
Y979195D01*
Y969038D02*
X365643Y974117D01*
X358025Y969038D02*
X365643Y963960D01*
X2540Y1051656D02*
X12697Y1041499D01*
X2540D02*
X12697Y1051656D01*
X2540Y1046578D02*
X12697D01*
X7618Y1041499D02*
Y1051656D01*
X17775Y1038960D02*
Y1041499D01*
X20314D01*
Y1038960D01*
X17775D01*
X40628Y1051656D02*
X38089Y1054195D01*
X33010D01*
X30471Y1051656D01*
Y1041499D01*
X33010Y1038960D01*
X38089D01*
X40628Y1041499D01*
Y1046578D01*
X35549D01*
X45706Y1054195D02*
X55863D01*
X50784D01*
Y1038960D01*
X60941Y1054195D02*
Y1038960D01*
X71098D01*
X91411Y1046578D02*
X101568D01*
X121881Y1054195D02*
Y1038960D01*
X132038D01*
X137116D02*
X142195D01*
X139656D01*
Y1054195D01*
X137116Y1051656D01*
X170126Y1038960D02*
X165047Y1044038D01*
Y1049117D01*
X170126Y1054195D01*
X177743Y1038960D02*
Y1054195D01*
X185361D01*
X187900Y1051656D01*
Y1046578D01*
X185361Y1044038D01*
X177743D01*
X195518Y1038960D02*
X200596D01*
X203135Y1041499D01*
Y1046578D01*
X200596Y1049117D01*
X195518D01*
X192978Y1046578D01*
Y1041499D01*
X195518Y1038960D01*
X208214D02*
X215831D01*
X218370Y1041499D01*
X215831Y1044038D01*
X210753D01*
X208214Y1046578D01*
X210753Y1049117D01*
X218370D01*
X223449Y1038960D02*
X228527D01*
X225988D01*
Y1049117D01*
X223449D01*
X238684Y1051656D02*
Y1049117D01*
X236144D01*
X241223D01*
X238684D01*
Y1041499D01*
X241223Y1038960D01*
X248840D02*
X253919D01*
X251380D01*
Y1049117D01*
X248840D01*
X261536D02*
X266614Y1038960D01*
X271693Y1049117D01*
X284389Y1038960D02*
X279310D01*
X276771Y1041499D01*
Y1046578D01*
X279310Y1049117D01*
X284389D01*
X286928Y1046578D01*
Y1044038D01*
X276771D01*
X292006Y1038960D02*
X297085Y1044038D01*
Y1049117D01*
X292006Y1054195D01*
X322477Y1038960D02*
X327555D01*
X330094Y1041499D01*
Y1046578D01*
X327555Y1049117D01*
X322477D01*
X319937Y1046578D01*
Y1041499D01*
X322477Y1038960D01*
X335172D02*
Y1054195D01*
Y1044038D02*
X342790Y1049117D01*
X335172Y1044038D02*
X342790Y1038960D01*
X2540Y1076656D02*
X12697Y1066499D01*
X2540D02*
X12697Y1076656D01*
X2540Y1071578D02*
X12697D01*
X7618Y1066499D02*
Y1076656D01*
X17775Y1063960D02*
Y1066499D01*
X20314D01*
Y1063960D01*
X17775D01*
X40628Y1076656D02*
X38089Y1079195D01*
X33010D01*
X30471Y1076656D01*
Y1066499D01*
X33010Y1063960D01*
X38089D01*
X40628Y1066499D01*
Y1071578D01*
X35549D01*
X45706Y1079195D02*
X55863D01*
X50784D01*
Y1063960D01*
X71098Y1076656D02*
X68559Y1079195D01*
X63480D01*
X60941Y1076656D01*
Y1074117D01*
X63480Y1071578D01*
X68559D01*
X71098Y1069038D01*
Y1066499D01*
X68559Y1063960D01*
X63480D01*
X60941Y1066499D01*
X91411Y1071578D02*
X101568D01*
X121881Y1079195D02*
X132038D01*
X126960D01*
Y1063960D01*
X139656D02*
X144734D01*
X147273Y1066499D01*
Y1071578D01*
X144734Y1074117D01*
X139656D01*
X137116Y1071578D01*
Y1066499D01*
X139656Y1063960D01*
X152352Y1058882D02*
Y1074117D01*
X159969D01*
X162508Y1071578D01*
Y1066499D01*
X159969Y1063960D01*
X152352D01*
X192978Y1076656D02*
X190439Y1079195D01*
X185361D01*
X182822Y1076656D01*
Y1074117D01*
X185361Y1071578D01*
X190439D01*
X192978Y1069038D01*
Y1066499D01*
X190439Y1063960D01*
X185361D01*
X182822Y1066499D01*
X200596Y1063960D02*
X205674D01*
X208214Y1066499D01*
Y1071578D01*
X205674Y1074117D01*
X200596D01*
X198057Y1071578D01*
Y1066499D01*
X200596Y1063960D01*
X213292D02*
X218370D01*
X215831D01*
Y1079195D01*
X213292D01*
X236144D02*
Y1063960D01*
X228527D01*
X225988Y1066499D01*
Y1071578D01*
X228527Y1074117D01*
X236144D01*
X248840Y1063960D02*
X243762D01*
X241223Y1066499D01*
Y1071578D01*
X243762Y1074117D01*
X248840D01*
X251380Y1071578D01*
Y1069038D01*
X241223D01*
X256458Y1074117D02*
Y1063960D01*
Y1069038D01*
X258997Y1071578D01*
X261536Y1074117D01*
X264075D01*
X289467Y1063960D02*
X294545D01*
X297085Y1066499D01*
Y1071578D01*
X294545Y1074117D01*
X289467D01*
X286928Y1071578D01*
Y1066499D01*
X289467Y1063960D01*
X302163D02*
Y1079195D01*
Y1069038D02*
X309781Y1074117D01*
X302163Y1069038D02*
X309781Y1063960D01*
X2540Y1101656D02*
X12697Y1091499D01*
X2540D02*
X12697Y1101656D01*
X2540Y1096578D02*
X12697D01*
X7618Y1091499D02*
Y1101656D01*
X17775Y1088960D02*
Y1091499D01*
X20314D01*
Y1088960D01*
X17775D01*
X40628Y1101656D02*
X38089Y1104195D01*
X33010D01*
X30471Y1101656D01*
Y1091499D01*
X33010Y1088960D01*
X38089D01*
X40628Y1091499D01*
Y1096578D01*
X35549D01*
X45706Y1104195D02*
X55863D01*
X50784D01*
Y1088960D01*
X60941D02*
Y1104195D01*
X68559D01*
X71098Y1101656D01*
Y1096578D01*
X68559Y1094038D01*
X60941D01*
X91411Y1096578D02*
X101568D01*
X121881Y1104195D02*
X132038D01*
X126960D01*
Y1088960D01*
X139656D02*
X144734D01*
X147273Y1091499D01*
Y1096578D01*
X144734Y1099117D01*
X139656D01*
X137116Y1096578D01*
Y1091499D01*
X139656Y1088960D01*
X152352Y1083882D02*
Y1099117D01*
X159969D01*
X162508Y1096578D01*
Y1091499D01*
X159969Y1088960D01*
X152352D01*
X182822D02*
Y1104195D01*
X190439D01*
X192978Y1101656D01*
Y1096578D01*
X190439Y1094038D01*
X182822D01*
X200596Y1099117D02*
X205674D01*
X208214Y1096578D01*
Y1088960D01*
X200596D01*
X198057Y1091499D01*
X200596Y1094038D01*
X208214D01*
X213292Y1088960D02*
X220909D01*
X223449Y1091499D01*
X220909Y1094038D01*
X215831D01*
X213292Y1096578D01*
X215831Y1099117D01*
X223449D01*
X231066Y1101656D02*
Y1099117D01*
X228527D01*
X233605D01*
X231066D01*
Y1091499D01*
X233605Y1088960D01*
X248840D02*
X243762D01*
X241223Y1091499D01*
Y1096578D01*
X243762Y1099117D01*
X248840D01*
X251380Y1096578D01*
Y1094038D01*
X241223D01*
X274232Y1088960D02*
X279310D01*
X281850Y1091499D01*
Y1096578D01*
X279310Y1099117D01*
X274232D01*
X271693Y1096578D01*
Y1091499D01*
X274232Y1088960D01*
X286928D02*
Y1104195D01*
Y1094038D02*
X294545Y1099117D01*
X286928Y1094038D02*
X294545Y1088960D01*
X2540Y1001656D02*
X12697Y991499D01*
X2540D02*
X12697Y1001656D01*
X2540Y996578D02*
X12697D01*
X7618Y991499D02*
Y1001656D01*
X17775Y988960D02*
Y991499D01*
X20314D01*
Y988960D01*
X17775D01*
X40628Y1001656D02*
X38089Y1004195D01*
X33010D01*
X30471Y1001656D01*
Y991499D01*
X33010Y988960D01*
X38089D01*
X40628Y991499D01*
Y996578D01*
X35549D01*
X45706Y1004195D02*
Y988960D01*
X53324D01*
X55863Y991499D01*
Y994038D01*
X53324Y996578D01*
X45706D01*
X53324D01*
X55863Y999117D01*
Y1001656D01*
X53324Y1004195D01*
X45706D01*
X71098Y1001656D02*
X68559Y1004195D01*
X63480D01*
X60941Y1001656D01*
Y999117D01*
X63480Y996578D01*
X68559D01*
X71098Y994038D01*
Y991499D01*
X68559Y988960D01*
X63480D01*
X60941Y991499D01*
X91411Y996578D02*
X101568D01*
X121881Y1004195D02*
Y988960D01*
X129499D01*
X132038Y991499D01*
Y994038D01*
X129499Y996578D01*
X121881D01*
X129499D01*
X132038Y999117D01*
Y1001656D01*
X129499Y1004195D01*
X121881D01*
X139656Y988960D02*
X144734D01*
X147273Y991499D01*
Y996578D01*
X144734Y999117D01*
X139656D01*
X137116Y996578D01*
Y991499D01*
X139656Y988960D01*
X154891Y1001656D02*
Y999117D01*
X152352D01*
X157430D01*
X154891D01*
Y991499D01*
X157430Y988960D01*
X167587Y1001656D02*
Y999117D01*
X165047D01*
X170126D01*
X167587D01*
Y991499D01*
X170126Y988960D01*
X180282D02*
X185361D01*
X187900Y991499D01*
Y996578D01*
X185361Y999117D01*
X180282D01*
X177743Y996578D01*
Y991499D01*
X180282Y988960D01*
X192978D02*
Y999117D01*
X195518D01*
X198057Y996578D01*
Y988960D01*
Y996578D01*
X200596Y999117D01*
X203135Y996578D01*
Y988960D01*
X233605Y1001656D02*
X231066Y1004195D01*
X225988D01*
X223449Y1001656D01*
Y999117D01*
X225988Y996578D01*
X231066D01*
X233605Y994038D01*
Y991499D01*
X231066Y988960D01*
X225988D01*
X223449Y991499D01*
X241223Y988960D02*
X246301D01*
X248840Y991499D01*
Y996578D01*
X246301Y999117D01*
X241223D01*
X238684Y996578D01*
Y991499D01*
X241223Y988960D01*
X253919D02*
X258997D01*
X256458D01*
Y1004195D01*
X253919D01*
X276771D02*
Y988960D01*
X269154D01*
X266615Y991499D01*
Y996578D01*
X269154Y999117D01*
X276771D01*
X289467Y988960D02*
X284389D01*
X281850Y991499D01*
Y996578D01*
X284389Y999117D01*
X289467D01*
X292006Y996578D01*
Y994038D01*
X281850D01*
X297085Y999117D02*
Y988960D01*
Y994038D01*
X299624Y996578D01*
X302163Y999117D01*
X304702D01*
X330094Y988960D02*
X335172D01*
X337712Y991499D01*
Y996578D01*
X335172Y999117D01*
X330094D01*
X327555Y996578D01*
Y991499D01*
X330094Y988960D01*
X342790D02*
Y1004195D01*
Y994038D02*
X350407Y999117D01*
X342790Y994038D02*
X350407Y988960D01*
X2540Y1026656D02*
X12697Y1016499D01*
X2540D02*
X12697Y1026656D01*
X2540Y1021578D02*
X12697D01*
X7618Y1016499D02*
Y1026656D01*
X17775Y1013960D02*
Y1016499D01*
X20314D01*
Y1013960D01*
X17775D01*
X40628Y1026656D02*
X38089Y1029195D01*
X33010D01*
X30471Y1026656D01*
Y1016499D01*
X33010Y1013960D01*
X38089D01*
X40628Y1016499D01*
Y1021578D01*
X35549D01*
X45706Y1029195D02*
Y1013960D01*
X53324D01*
X55863Y1016499D01*
Y1019038D01*
X53324Y1021578D01*
X45706D01*
X53324D01*
X55863Y1024117D01*
Y1026656D01*
X53324Y1029195D01*
X45706D01*
X60941D02*
Y1013960D01*
X71098D01*
X91411Y1021578D02*
X101568D01*
X121881Y1029195D02*
Y1013960D01*
X132038D01*
X147273D02*
X137116D01*
X147273Y1024117D01*
Y1026656D01*
X144734Y1029195D01*
X139656D01*
X137116Y1026656D01*
X172665Y1013960D02*
X167587Y1019038D01*
Y1024117D01*
X172665Y1029195D01*
X180282Y1013960D02*
Y1029195D01*
X187900D01*
X190439Y1026656D01*
Y1021578D01*
X187900Y1019038D01*
X180282D01*
X198057Y1013960D02*
X203135D01*
X205674Y1016499D01*
Y1021578D01*
X203135Y1024117D01*
X198057D01*
X195518Y1021578D01*
Y1016499D01*
X198057Y1013960D01*
X210753D02*
X218370D01*
X220909Y1016499D01*
X218370Y1019038D01*
X213292D01*
X210753Y1021578D01*
X213292Y1024117D01*
X220909D01*
X225988Y1013960D02*
X231066D01*
X228527D01*
Y1024117D01*
X225988D01*
X241223Y1026656D02*
Y1024117D01*
X238684D01*
X243762D01*
X241223D01*
Y1016499D01*
X243762Y1013960D01*
X251380D02*
X256458D01*
X253919D01*
Y1024117D01*
X251380D01*
X264075D02*
X269154Y1013960D01*
X274232Y1024117D01*
X286928Y1013960D02*
X281850D01*
X279310Y1016499D01*
Y1021578D01*
X281850Y1024117D01*
X286928D01*
X289467Y1021578D01*
Y1019038D01*
X279310D01*
X294545Y1013960D02*
X299624Y1019038D01*
Y1024117D01*
X294545Y1029195D01*
X325016Y1013960D02*
X330094D01*
X332633Y1016499D01*
Y1021578D01*
X330094Y1024117D01*
X325016D01*
X322477Y1021578D01*
Y1016499D01*
X325016Y1013960D01*
X337711D02*
Y1029195D01*
Y1019038D02*
X345329Y1024117D01*
X337711Y1019038D02*
X345329Y1013960D01*
X12697Y1154195D02*
X2540D01*
Y1146578D01*
X7618D01*
X2540D01*
Y1138960D01*
X17775D02*
X22853D01*
X20314D01*
Y1149117D01*
X17775D01*
X30471Y1138960D02*
X35549D01*
X33010D01*
Y1154195D01*
X30471D01*
X50784Y1138960D02*
X45706D01*
X43167Y1141499D01*
Y1146578D01*
X45706Y1149117D01*
X50784D01*
X53324Y1146578D01*
Y1144038D01*
X43167D01*
X58402Y1138960D02*
X66020D01*
X68559Y1141499D01*
X66020Y1144038D01*
X60941D01*
X58402Y1146578D01*
X60941Y1149117D01*
X68559D01*
X99029D02*
X91411D01*
X88872Y1146578D01*
Y1141499D01*
X91411Y1138960D01*
X99029D01*
X104107Y1154195D02*
Y1138960D01*
Y1146578D01*
X106646Y1149117D01*
X111725D01*
X114264Y1146578D01*
Y1138960D01*
X126960D02*
X121881D01*
X119342Y1141499D01*
Y1146578D01*
X121881Y1149117D01*
X126960D01*
X129499Y1146578D01*
Y1144038D01*
X119342D01*
X144734Y1149117D02*
X137116D01*
X134577Y1146578D01*
Y1141499D01*
X137116Y1138960D01*
X144734D01*
X149812D02*
Y1154195D01*
Y1144038D02*
X157430Y1149117D01*
X149812Y1144038D02*
X157430Y1138960D01*
X165047D02*
X170126D01*
X167587D01*
Y1154195D01*
X165047D01*
X177743Y1138960D02*
X182822D01*
X180282D01*
Y1149117D01*
X177743D01*
X190439Y1138960D02*
X198057D01*
X200596Y1141499D01*
X198057Y1144038D01*
X192978D01*
X190439Y1146578D01*
X192978Y1149117D01*
X200596D01*
X208214Y1151656D02*
Y1149117D01*
X205674D01*
X210753D01*
X208214D01*
Y1141499D01*
X210753Y1138960D01*
D100*
X208280Y-450850D02*
Y-425458D01*
X220976D01*
X225208Y-429690D01*
Y-438154D01*
X220976Y-442386D01*
X208280D01*
X216744D02*
X225208Y-450850D01*
X246368D02*
X237904D01*
X233672Y-446618D01*
Y-438154D01*
X237904Y-433922D01*
X246368D01*
X250600Y-438154D01*
Y-442386D01*
X233672D01*
X259064Y-450850D02*
Y-433922D01*
X263296D01*
X267528Y-438154D01*
Y-450850D01*
Y-438154D01*
X271759Y-433922D01*
X275991Y-438154D01*
Y-450850D01*
X288687Y-433922D02*
X297151D01*
X301383Y-438154D01*
Y-450850D01*
X288687D01*
X284455Y-446618D01*
X288687Y-442386D01*
X301383D01*
X309847Y-450850D02*
Y-425458D01*
Y-442386D02*
X322543Y-433922D01*
X309847Y-442386D02*
X322543Y-450850D01*
X347935D02*
X339471D01*
X335239Y-446618D01*
Y-438154D01*
X339471Y-433922D01*
X347935D01*
X352167Y-438154D01*
Y-442386D01*
X335239D01*
X386023Y-425458D02*
Y-450850D01*
X398718D01*
X402950Y-446618D01*
Y-442386D01*
Y-438154D01*
X398718Y-433922D01*
X386023D01*
X411414D02*
Y-446618D01*
X415646Y-450850D01*
X428342D01*
Y-455082D01*
X424110Y-459314D01*
X419878D01*
X428342Y-450850D02*
Y-433922D01*
X462198Y-450850D02*
Y-433922D01*
X470662Y-425458D01*
X479126Y-433922D01*
Y-450850D01*
Y-438154D01*
X462198D01*
X487590Y-450850D02*
Y-446618D01*
X491822D01*
Y-450850D01*
X487590D01*
X525677Y-429690D02*
X521446Y-425458D01*
X512981D01*
X508750Y-429690D01*
Y-446618D01*
X512981Y-450850D01*
X521446D01*
X525677Y-446618D01*
X534141Y-425458D02*
Y-450850D01*
Y-438154D01*
X538373Y-433922D01*
X546837D01*
X551069Y-438154D01*
Y-450850D01*
X563765Y-433922D02*
X572229D01*
X576461Y-438154D01*
Y-450850D01*
X563765D01*
X559533Y-446618D01*
X563765Y-442386D01*
X576461D01*
X584925Y-425458D02*
Y-450850D01*
X597621D01*
X601853Y-446618D01*
Y-442386D01*
Y-438154D01*
X597621Y-433922D01*
X584925D01*
X610317Y-450850D02*
X618781D01*
X614549D01*
Y-433922D01*
X610317D01*
X631477D02*
Y-450850D01*
Y-442386D01*
X635709Y-438154D01*
X639940Y-433922D01*
X644173D01*
X661100D02*
X669564D01*
X673796Y-438154D01*
Y-450850D01*
X661100D01*
X656868Y-446618D01*
X661100Y-442386D01*
X673796D01*
X233000Y-497414D02*
X237232D01*
X241464Y-493182D01*
Y-472022D01*
X228768D01*
X224536Y-476254D01*
Y-484718D01*
X228768Y-488950D01*
X241464D01*
X249928D02*
X258392D01*
X254160D01*
Y-472022D01*
X249928D01*
X275320Y-467790D02*
Y-472022D01*
X271088D01*
X279552D01*
X275320D01*
Y-484718D01*
X279552Y-488950D01*
X292247Y-463558D02*
Y-488950D01*
Y-476254D01*
X296479Y-472022D01*
X304943D01*
X309175Y-476254D01*
Y-488950D01*
X317639Y-472022D02*
Y-484718D01*
X321871Y-488950D01*
X334567D01*
Y-472022D01*
X343031Y-463558D02*
Y-488950D01*
X355727D01*
X359959Y-484718D01*
Y-480486D01*
Y-476254D01*
X355727Y-472022D01*
X343031D01*
X368423Y-488950D02*
Y-484718D01*
X372655D01*
Y-488950D01*
X368423D01*
X406511Y-472022D02*
X393815D01*
X389583Y-476254D01*
Y-484718D01*
X393815Y-488950D01*
X406511D01*
X419206D02*
X427670D01*
X431902Y-484718D01*
Y-476254D01*
X427670Y-472022D01*
X419206D01*
X414975Y-476254D01*
Y-484718D01*
X419206Y-488950D01*
X440366D02*
Y-472022D01*
X444598D01*
X448830Y-476254D01*
Y-488950D01*
Y-476254D01*
X453062Y-472022D01*
X457294Y-476254D01*
Y-488950D01*
X465758D02*
X482686Y-472022D01*
X499614Y-497414D02*
X503846D01*
X508078Y-493182D01*
Y-472022D01*
X495382D01*
X491150Y-476254D01*
Y-484718D01*
X495382Y-488950D01*
X508078D01*
X516542Y-463558D02*
Y-488950D01*
Y-476254D01*
X520774Y-472022D01*
X529238D01*
X533470Y-476254D01*
Y-488950D01*
X546165Y-472022D02*
X554629D01*
X558861Y-476254D01*
Y-488950D01*
X546165D01*
X541933Y-484718D01*
X546165Y-480486D01*
X558861D01*
X567325Y-488950D02*
Y-472022D01*
X580021D01*
X584253Y-476254D01*
Y-488950D01*
X592717D02*
Y-463558D01*
Y-480486D02*
X605413Y-472022D01*
X592717Y-480486D02*
X605413Y-488950D01*
X618109Y-472022D02*
Y-484718D01*
X622341Y-488950D01*
X635037D01*
Y-472022D01*
M02*
