G04*
G04 #@! TF.GenerationSoftware,Altium Limited,Altium Designer,20.2.6 (244)*
G04*
G04 Layer_Color=16711935*
%FSLAX44Y44*%
%MOMM*%
G71*
G04*
G04 #@! TF.SameCoordinates,8B2779CE-768C-4C2E-8B4F-FC9E545F8715*
G04*
G04*
G04 #@! TF.FilePolarity,Negative*
G04*
G01*
G75*
G04:AMPARAMS|DCode=57|XSize=3.4032mm|YSize=1.8032mm|CornerRadius=0.9016mm|HoleSize=0mm|Usage=FLASHONLY|Rotation=270.000|XOffset=0mm|YOffset=0mm|HoleType=Round|Shape=RoundedRectangle|*
%AMROUNDEDRECTD57*
21,1,3.4032,0.0000,0,0,270.0*
21,1,1.6000,1.8032,0,0,270.0*
1,1,1.8032,0.0000,-0.8000*
1,1,1.8032,0.0000,0.8000*
1,1,1.8032,0.0000,0.8000*
1,1,1.8032,0.0000,-0.8000*
%
%ADD57ROUNDEDRECTD57*%
G04:AMPARAMS|DCode=58|XSize=3.4032mm|YSize=1.8032mm|CornerRadius=0.9016mm|HoleSize=0mm|Usage=FLASHONLY|Rotation=180.000|XOffset=0mm|YOffset=0mm|HoleType=Round|Shape=RoundedRectangle|*
%AMROUNDEDRECTD58*
21,1,3.4032,0.0000,0,0,180.0*
21,1,1.6000,1.8032,0,0,180.0*
1,1,1.8032,-0.8000,0.0000*
1,1,1.8032,0.8000,0.0000*
1,1,1.8032,0.8000,0.0000*
1,1,1.8032,-0.8000,0.0000*
%
%ADD58ROUNDEDRECTD58*%
%ADD80C,0.9032*%
%ADD81O,1.2532X2.3032*%
%ADD82C,3.8000*%
G04:AMPARAMS|DCode=99|XSize=1.524mm|YSize=1.524mm|CornerRadius=0.3048mm|HoleSize=0mm|Usage=FLASHONLY|Rotation=180.000|XOffset=0mm|YOffset=0mm|HoleType=Round|Shape=RoundedRectangle|*
%AMROUNDEDRECTD99*
21,1,1.5240,0.9144,0,0,180.0*
21,1,0.9144,1.5240,0,0,180.0*
1,1,0.6096,-0.4572,0.4572*
1,1,0.6096,0.4572,0.4572*
1,1,0.6096,0.4572,-0.4572*
1,1,0.6096,-0.4572,-0.4572*
%
%ADD99ROUNDEDRECTD99*%
D57*
X130400Y8000D02*
D03*
X105000D02*
D03*
X79600D02*
D03*
D03*
D58*
X202000Y496300D02*
D03*
D03*
Y470900D02*
D03*
Y445500D02*
D03*
Y420100D02*
D03*
Y394700D02*
D03*
Y369300D02*
D03*
Y343900D02*
D03*
Y318500D02*
D03*
Y293100D02*
D03*
Y267700D02*
D03*
Y242300D02*
D03*
Y216900D02*
D03*
Y191500D02*
D03*
Y166100D02*
D03*
Y140700D02*
D03*
Y115300D02*
D03*
Y89900D02*
D03*
Y64500D02*
D03*
Y39100D02*
D03*
Y13700D02*
D03*
X8000D02*
D03*
Y39100D02*
D03*
Y64500D02*
D03*
Y89900D02*
D03*
Y115300D02*
D03*
Y140700D02*
D03*
Y166100D02*
D03*
Y191500D02*
D03*
Y216900D02*
D03*
Y242300D02*
D03*
Y267700D02*
D03*
Y293100D02*
D03*
Y318500D02*
D03*
Y343900D02*
D03*
Y369300D02*
D03*
Y394700D02*
D03*
Y420100D02*
D03*
Y445500D02*
D03*
Y470900D02*
D03*
Y496300D02*
D03*
D03*
D80*
X76100Y448500D02*
D03*
X133900D02*
D03*
D81*
X61800Y485000D02*
D03*
X148200D02*
D03*
X61800Y443200D02*
D03*
X148200D02*
D03*
D82*
X48000Y20000D02*
D03*
Y465000D02*
D03*
X162000D02*
D03*
Y20000D02*
D03*
D99*
X105000Y495000D02*
D03*
X69850Y415290D02*
D03*
X121412Y465328D02*
D03*
X97536Y465074D02*
D03*
X69850Y397510D02*
D03*
M02*
