G04*
G04 #@! TF.GenerationSoftware,Altium Limited,Altium Designer,20.2.6 (244)*
G04*
G04 Layer_Color=8388736*
%FSLAX44Y44*%
%MOMM*%
G71*
G04*
G04 #@! TF.SameCoordinates,8B2779CE-768C-4C2E-8B4F-FC9E545F8715*
G04*
G04*
G04 #@! TF.FilePolarity,Negative*
G04*
G01*
G75*
%ADD52R,0.6096X0.8636*%
%ADD53R,1.5832X1.3032*%
%ADD54R,0.3748X0.4188*%
%ADD55R,1.0032X1.0032*%
%ADD56R,1.5432X2.0032*%
G04:AMPARAMS|DCode=57|XSize=3.4032mm|YSize=1.8032mm|CornerRadius=0.9016mm|HoleSize=0mm|Usage=FLASHONLY|Rotation=270.000|XOffset=0mm|YOffset=0mm|HoleType=Round|Shape=RoundedRectangle|*
%AMROUNDEDRECTD57*
21,1,3.4032,0.0000,0,0,270.0*
21,1,1.6000,1.8032,0,0,270.0*
1,1,1.8032,0.0000,-0.8000*
1,1,1.8032,0.0000,0.8000*
1,1,1.8032,0.0000,0.8000*
1,1,1.8032,0.0000,-0.8000*
%
%ADD57ROUNDEDRECTD57*%
G04:AMPARAMS|DCode=58|XSize=3.4032mm|YSize=1.8032mm|CornerRadius=0.9016mm|HoleSize=0mm|Usage=FLASHONLY|Rotation=180.000|XOffset=0mm|YOffset=0mm|HoleType=Round|Shape=RoundedRectangle|*
%AMROUNDEDRECTD58*
21,1,3.4032,0.0000,0,0,180.0*
21,1,1.6000,1.8032,0,0,180.0*
1,1,1.8032,-0.8000,0.0000*
1,1,1.8032,0.8000,0.0000*
1,1,1.8032,0.8000,0.0000*
1,1,1.8032,-0.8000,0.0000*
%
%ADD58ROUNDEDRECTD58*%
%ADD59R,0.8032X1.6532*%
%ADD60R,0.5032X1.6532*%
%ADD61R,1.6032X2.6032*%
%ADD62R,0.8532X0.6032*%
%ADD63R,0.8532X0.7032*%
%ADD64R,0.3748X0.3539*%
%ADD65R,1.1032X0.8032*%
%ADD66R,0.6170X0.7270*%
%ADD67R,0.8532X1.5032*%
%ADD68R,0.9524X0.9524*%
G04:AMPARAMS|DCode=69|XSize=0.3017mm|YSize=0.9467mm|CornerRadius=0.0777mm|HoleSize=0mm|Usage=FLASHONLY|Rotation=0.000|XOffset=0mm|YOffset=0mm|HoleType=Round|Shape=RoundedRectangle|*
%AMROUNDEDRECTD69*
21,1,0.3017,0.7913,0,0,0.0*
21,1,0.1463,0.9467,0,0,0.0*
1,1,0.1554,0.0731,-0.3956*
1,1,0.1554,-0.0731,-0.3956*
1,1,0.1554,-0.0731,0.3956*
1,1,0.1554,0.0731,0.3956*
%
%ADD69ROUNDEDRECTD69*%
G04:AMPARAMS|DCode=70|XSize=0.9467mm|YSize=0.3017mm|CornerRadius=0.0777mm|HoleSize=0mm|Usage=FLASHONLY|Rotation=0.000|XOffset=0mm|YOffset=0mm|HoleType=Round|Shape=RoundedRectangle|*
%AMROUNDEDRECTD70*
21,1,0.9467,0.1463,0,0,0.0*
21,1,0.7913,0.3017,0,0,0.0*
1,1,0.1554,0.3956,-0.0731*
1,1,0.1554,-0.3956,-0.0731*
1,1,0.1554,-0.3956,0.0731*
1,1,0.1554,0.3956,0.0731*
%
%ADD70ROUNDEDRECTD70*%
G04:AMPARAMS|DCode=71|XSize=1.8132mm|YSize=0.7832mm|CornerRadius=0.2466mm|HoleSize=0mm|Usage=FLASHONLY|Rotation=270.000|XOffset=0mm|YOffset=0mm|HoleType=Round|Shape=RoundedRectangle|*
%AMROUNDEDRECTD71*
21,1,1.8132,0.2900,0,0,270.0*
21,1,1.3200,0.7832,0,0,270.0*
1,1,0.4932,-0.1450,-0.6600*
1,1,0.4932,-0.1450,0.6600*
1,1,0.4932,0.1450,0.6600*
1,1,0.4932,0.1450,-0.6600*
%
%ADD71ROUNDEDRECTD71*%
%ADD72R,0.4318X1.2524*%
G04:AMPARAMS|DCode=73|XSize=1.5032mm|YSize=1.4032mm|CornerRadius=0mm|HoleSize=0mm|Usage=FLASHONLY|Rotation=225.000|XOffset=0mm|YOffset=0mm|HoleType=Round|Shape=Rectangle|*
%AMROTATEDRECTD73*
4,1,4,0.0354,1.0276,1.0276,0.0354,-0.0354,-1.0276,-1.0276,-0.0354,0.0354,1.0276,0.0*
%
%ADD73ROTATEDRECTD73*%

%ADD74R,0.8636X0.6096*%
G04:AMPARAMS|DCode=75|XSize=0.4188mm|YSize=0.3748mm|CornerRadius=0mm|HoleSize=0mm|Usage=FLASHONLY|Rotation=45.000|XOffset=0mm|YOffset=0mm|HoleType=Round|Shape=Rectangle|*
%AMROTATEDRECTD75*
4,1,4,-0.0156,-0.2806,-0.2806,-0.0156,0.0156,0.2806,0.2806,0.0156,-0.0156,-0.2806,0.0*
%
%ADD75ROTATEDRECTD75*%

%ADD76R,0.4188X0.3748*%
G04:AMPARAMS|DCode=77|XSize=0.4188mm|YSize=0.3748mm|CornerRadius=0mm|HoleSize=0mm|Usage=FLASHONLY|Rotation=315.000|XOffset=0mm|YOffset=0mm|HoleType=Round|Shape=Rectangle|*
%AMROTATEDRECTD77*
4,1,4,-0.2806,0.0156,-0.0156,0.2806,0.2806,-0.0156,0.0156,-0.2806,-0.2806,0.0156,0.0*
%
%ADD77ROTATEDRECTD77*%

%ADD78R,0.7270X0.6170*%
G04:AMPARAMS|DCode=79|XSize=0.617mm|YSize=0.727mm|CornerRadius=0mm|HoleSize=0mm|Usage=FLASHONLY|Rotation=135.000|XOffset=0mm|YOffset=0mm|HoleType=Round|Shape=Rectangle|*
%AMROTATEDRECTD79*
4,1,4,0.4752,0.0389,-0.0389,-0.4752,-0.4752,-0.0389,0.0389,0.4752,0.4752,0.0389,0.0*
%
%ADD79ROTATEDRECTD79*%

%ADD80C,0.9032*%
%ADD81O,1.2532X2.3032*%
%ADD82C,3.8000*%
D52*
X149352Y267970D02*
D03*
X138684D02*
D03*
Y245872D02*
D03*
X149352D02*
D03*
X138684Y257048D02*
D03*
X149352D02*
D03*
D53*
X171450Y404374D02*
D03*
Y421634D02*
D03*
D54*
X127254Y386378D02*
D03*
Y391878D02*
D03*
X168148Y268434D02*
D03*
Y262934D02*
D03*
X107188Y152610D02*
D03*
Y147110D02*
D03*
X72644Y257810D02*
D03*
Y252310D02*
D03*
X113792Y152610D02*
D03*
Y147110D02*
D03*
X135382Y391878D02*
D03*
Y386378D02*
D03*
D55*
X39878Y443357D02*
D03*
Y426339D02*
D03*
D56*
X126416Y407924D02*
D03*
X155016D02*
D03*
D57*
X79600Y8000D02*
D03*
D03*
X105000D02*
D03*
X130400D02*
D03*
D58*
X202000Y496300D02*
D03*
D03*
Y470900D02*
D03*
Y445500D02*
D03*
Y420100D02*
D03*
Y394700D02*
D03*
Y369300D02*
D03*
Y343900D02*
D03*
Y318500D02*
D03*
Y293100D02*
D03*
Y267700D02*
D03*
Y242300D02*
D03*
Y216900D02*
D03*
Y191500D02*
D03*
Y166100D02*
D03*
Y140700D02*
D03*
Y115300D02*
D03*
Y89900D02*
D03*
Y64500D02*
D03*
Y39100D02*
D03*
Y13700D02*
D03*
X8000D02*
D03*
Y39100D02*
D03*
Y64500D02*
D03*
Y89900D02*
D03*
Y115300D02*
D03*
Y140700D02*
D03*
Y166100D02*
D03*
Y191500D02*
D03*
Y216900D02*
D03*
Y242300D02*
D03*
Y267700D02*
D03*
Y293100D02*
D03*
Y318500D02*
D03*
Y343900D02*
D03*
Y369300D02*
D03*
Y394700D02*
D03*
Y420100D02*
D03*
Y445500D02*
D03*
Y470900D02*
D03*
Y496300D02*
D03*
D03*
D59*
X72500Y434050D02*
D03*
X80500D02*
D03*
X129500D02*
D03*
X137500D02*
D03*
D60*
X87500D02*
D03*
X92500D02*
D03*
X97500D02*
D03*
X102500D02*
D03*
X122500D02*
D03*
X117500D02*
D03*
X112500D02*
D03*
X107500D02*
D03*
D61*
X134876Y310134D02*
D03*
X166876D02*
D03*
D62*
X166162Y221568D02*
D03*
Y231568D02*
D03*
D63*
X152862Y226568D02*
D03*
D64*
X120904Y258816D02*
D03*
Y253939D02*
D03*
X114046Y258917D02*
D03*
Y254040D02*
D03*
D65*
X158496Y252342D02*
D03*
Y267342D02*
D03*
D66*
X85576Y389382D02*
D03*
X76476D02*
D03*
Y379984D02*
D03*
X85576D02*
D03*
X76476Y398780D02*
D03*
X85576D02*
D03*
X133328Y335534D02*
D03*
X124228D02*
D03*
X85576Y408178D02*
D03*
X76476D02*
D03*
X147552Y278130D02*
D03*
X138452D02*
D03*
X76476Y417576D02*
D03*
X85576D02*
D03*
D67*
X38862Y368496D02*
D03*
Y412496D02*
D03*
X60362D02*
D03*
Y368496D02*
D03*
D68*
X116000Y211000D02*
D03*
Y200000D02*
D03*
Y189000D02*
D03*
X105000Y211000D02*
D03*
Y200000D02*
D03*
Y189000D02*
D03*
X94000Y211000D02*
D03*
Y200000D02*
D03*
Y189000D02*
D03*
D69*
X131000Y234350D02*
D03*
X127000D02*
D03*
Y165650D02*
D03*
X131000D02*
D03*
X123000Y234350D02*
D03*
X119000D02*
D03*
X115000D02*
D03*
X111000D02*
D03*
X107000D02*
D03*
Y165650D02*
D03*
X111000D02*
D03*
X115000D02*
D03*
X119000D02*
D03*
X123000D02*
D03*
X103000Y234350D02*
D03*
X99000D02*
D03*
X95000D02*
D03*
X91000D02*
D03*
X87000D02*
D03*
Y165650D02*
D03*
X91000D02*
D03*
X95000D02*
D03*
X99000D02*
D03*
X103000D02*
D03*
X83000Y234350D02*
D03*
X79000D02*
D03*
Y165650D02*
D03*
X83000D02*
D03*
D70*
X139350Y222000D02*
D03*
Y226000D02*
D03*
Y202000D02*
D03*
Y206000D02*
D03*
Y210000D02*
D03*
Y214000D02*
D03*
Y218000D02*
D03*
Y182000D02*
D03*
Y186000D02*
D03*
Y190000D02*
D03*
Y194000D02*
D03*
Y198000D02*
D03*
Y174000D02*
D03*
Y178000D02*
D03*
X70650Y226000D02*
D03*
Y222000D02*
D03*
Y218000D02*
D03*
Y214000D02*
D03*
Y210000D02*
D03*
Y206000D02*
D03*
Y202000D02*
D03*
Y198000D02*
D03*
Y194000D02*
D03*
Y190000D02*
D03*
Y186000D02*
D03*
Y182000D02*
D03*
Y178000D02*
D03*
Y174000D02*
D03*
D71*
X81534Y349486D02*
D03*
X68834D02*
D03*
X56134D02*
D03*
X43434D02*
D03*
Y277386D02*
D03*
X56134D02*
D03*
X68834D02*
D03*
X81534D02*
D03*
D72*
X146964Y382778D02*
D03*
X151968D02*
D03*
X156972D02*
D03*
X161976D02*
D03*
X166980D02*
D03*
Y339090D02*
D03*
X161976D02*
D03*
X156972D02*
D03*
X151968D02*
D03*
X146964D02*
D03*
D73*
X79746Y124025D02*
D03*
X64189Y108468D02*
D03*
X76210Y96447D02*
D03*
X91767Y112004D02*
D03*
D74*
X81534Y263652D02*
D03*
Y252984D02*
D03*
D75*
X64174Y128945D02*
D03*
X60286Y125056D02*
D03*
X92543Y92289D02*
D03*
X96433Y96179D02*
D03*
D76*
X57360Y189738D02*
D03*
X51860D02*
D03*
X64980Y237236D02*
D03*
X59480D02*
D03*
X146094Y236982D02*
D03*
X151594D02*
D03*
X151682Y189738D02*
D03*
X157182D02*
D03*
D77*
X100497Y253834D02*
D03*
X96608Y257722D02*
D03*
X96056Y249315D02*
D03*
X92167Y253204D02*
D03*
D78*
X169418Y276120D02*
D03*
Y285220D02*
D03*
X160274D02*
D03*
Y276120D02*
D03*
X48768Y490242D02*
D03*
Y499342D02*
D03*
X37084D02*
D03*
Y490242D02*
D03*
X134874Y353546D02*
D03*
Y344446D02*
D03*
Y361972D02*
D03*
Y371072D02*
D03*
X124714Y361972D02*
D03*
Y371072D02*
D03*
Y344446D02*
D03*
Y353546D02*
D03*
D79*
X101685Y125899D02*
D03*
X108119Y119465D02*
D03*
X94403Y133181D02*
D03*
X87969Y139615D02*
D03*
D80*
X76100Y448500D02*
D03*
X133900D02*
D03*
D81*
X61800Y485000D02*
D03*
X148200D02*
D03*
X61800Y443200D02*
D03*
X148200D02*
D03*
D82*
X48000Y20000D02*
D03*
Y465000D02*
D03*
X162000D02*
D03*
Y20000D02*
D03*
M02*
