G04*
G04 #@! TF.GenerationSoftware,Altium Limited,Altium Designer,20.2.6 (244)*
G04*
G04 Layer_Physical_Order=2*
G04 Layer_Color=36540*
%FSLAX44Y44*%
%MOMM*%
G71*
G04*
G04 #@! TF.SameCoordinates,8B2779CE-768C-4C2E-8B4F-FC9E545F8715*
G04*
G04*
G04 #@! TF.FilePolarity,Positive*
G04*
G01*
G75*
%ADD25O,1.0500X2.1000*%
%ADD93C,1.6000*%
%ADD96C,0.5000*%
%ADD97C,0.4000*%
%ADD98C,0.6000*%
G36*
X207961Y505432D02*
X207200Y505331D01*
X204945Y504397D01*
X203009Y502911D01*
X202635Y502425D01*
X201365D01*
X200991Y502911D01*
X199055Y504397D01*
X196800Y505331D01*
X194380Y505650D01*
X191960Y505331D01*
X189705Y504397D01*
X187769Y502911D01*
X186283Y500975D01*
X185349Y498720D01*
X185030Y496300D01*
X185349Y493880D01*
X186283Y491625D01*
X187769Y489689D01*
X189705Y488203D01*
X191960Y487269D01*
X194380Y486950D01*
X196800Y487269D01*
X199055Y488203D01*
X200991Y489689D01*
X201365Y490175D01*
X202635D01*
X203009Y489689D01*
X204945Y488203D01*
X207200Y487269D01*
X207961Y487168D01*
Y480032D01*
X207200Y479931D01*
X204945Y478997D01*
X203009Y477511D01*
X202635Y477025D01*
X201365D01*
X200991Y477511D01*
X199055Y478997D01*
X196800Y479931D01*
X194380Y480250D01*
X191960Y479931D01*
X189705Y478997D01*
X187769Y477511D01*
X186283Y475575D01*
X185349Y473320D01*
X185030Y470900D01*
X185349Y468480D01*
X186283Y466225D01*
X187769Y464289D01*
X189705Y462803D01*
X191960Y461869D01*
X194380Y461550D01*
X196800Y461869D01*
X199055Y462803D01*
X200991Y464289D01*
X201365Y464775D01*
X202635D01*
X203009Y464289D01*
X204945Y462803D01*
X207200Y461869D01*
X207961Y461768D01*
Y455913D01*
X206868Y455769D01*
X204305Y454707D01*
X202103Y453017D01*
X201897D01*
X199695Y454707D01*
X197132Y455769D01*
X195650Y455964D01*
Y445500D01*
Y435036D01*
X197132Y435231D01*
X199695Y436293D01*
X201897Y437983D01*
X202103D01*
X204305Y436293D01*
X206868Y435231D01*
X207961Y435088D01*
Y429232D01*
X207200Y429131D01*
X204945Y428197D01*
X203009Y426711D01*
X202635Y426225D01*
X201365D01*
X200991Y426711D01*
X199055Y428197D01*
X196800Y429131D01*
X194380Y429450D01*
X191960Y429131D01*
X189705Y428197D01*
X187769Y426711D01*
X186283Y424775D01*
X185349Y422520D01*
X185030Y420100D01*
X185349Y417680D01*
X186283Y415425D01*
X187769Y413489D01*
X189705Y412003D01*
X191960Y411069D01*
X194380Y410750D01*
X196800Y411069D01*
X199055Y412003D01*
X200991Y413489D01*
X201365Y413975D01*
X202635D01*
X203009Y413489D01*
X204945Y412003D01*
X207200Y411069D01*
X207961Y410968D01*
Y403832D01*
X207200Y403731D01*
X204945Y402797D01*
X203009Y401311D01*
X202635Y400825D01*
X201365D01*
X200991Y401311D01*
X199055Y402797D01*
X196800Y403731D01*
X194380Y404050D01*
X191960Y403731D01*
X189705Y402797D01*
X187769Y401311D01*
X186283Y399375D01*
X185349Y397120D01*
X185301Y396758D01*
X183939Y396141D01*
X183429Y396481D01*
X181868Y396792D01*
X180308Y396481D01*
X178987Y395599D01*
X178091Y396198D01*
X176530Y396508D01*
X174969Y396198D01*
X173843Y395445D01*
X172576Y396291D01*
X171016Y396602D01*
X169455Y396291D01*
X168132Y395407D01*
X167248Y394084D01*
X166937Y392523D01*
X167248Y390963D01*
X168132Y389640D01*
X169455Y388755D01*
X171016Y388445D01*
X172576Y388755D01*
X173703Y389508D01*
X174969Y388662D01*
X176530Y388352D01*
X178091Y388662D01*
X179411Y389544D01*
X180308Y388945D01*
X181868Y388635D01*
X183429Y388945D01*
X184752Y389829D01*
X184898Y390048D01*
X186174Y390027D01*
X186351Y389936D01*
X187769Y388089D01*
X189705Y386603D01*
X191960Y385669D01*
X194380Y385350D01*
X196800Y385669D01*
X199055Y386603D01*
X200991Y388089D01*
X201365Y388575D01*
X202635D01*
X203009Y388089D01*
X204945Y386603D01*
X207200Y385669D01*
X207961Y385568D01*
Y378432D01*
X207200Y378331D01*
X204945Y377397D01*
X203009Y375911D01*
X202635Y375425D01*
X201365D01*
X200991Y375911D01*
X199055Y377397D01*
X196800Y378331D01*
X194380Y378650D01*
X191960Y378331D01*
X189705Y377397D01*
X187769Y375911D01*
X186283Y373975D01*
X185349Y371720D01*
X185030Y369300D01*
X185349Y366880D01*
X186283Y364625D01*
X187769Y362689D01*
X189705Y361203D01*
X191960Y360269D01*
X194380Y359950D01*
X196800Y360269D01*
X199055Y361203D01*
X200991Y362689D01*
X201365Y363175D01*
X202635D01*
X203009Y362689D01*
X204945Y361203D01*
X207200Y360269D01*
X207961Y360168D01*
Y353032D01*
X207200Y352931D01*
X204945Y351997D01*
X203009Y350511D01*
X202635Y350025D01*
X201365D01*
X200991Y350511D01*
X199055Y351997D01*
X196800Y352931D01*
X194380Y353250D01*
X191960Y352931D01*
X189705Y351997D01*
X187769Y350511D01*
X186283Y348575D01*
X185349Y346320D01*
X185030Y343900D01*
X185349Y341480D01*
X186283Y339225D01*
X187769Y337289D01*
X189705Y335803D01*
X191960Y334869D01*
X194380Y334550D01*
X196800Y334869D01*
X199055Y335803D01*
X200991Y337289D01*
X201365Y337775D01*
X202635D01*
X203009Y337289D01*
X204945Y335803D01*
X207200Y334869D01*
X207961Y334768D01*
Y328913D01*
X206868Y328769D01*
X204305Y327707D01*
X202981Y326691D01*
X202000Y326081D01*
X201019Y326691D01*
X199695Y327707D01*
X197132Y328769D01*
X195650Y328964D01*
Y318500D01*
Y308036D01*
X197132Y308231D01*
X199695Y309293D01*
X201019Y310309D01*
X202000Y310919D01*
X202981Y310309D01*
X204305Y309293D01*
X206868Y308231D01*
X207961Y308088D01*
Y302232D01*
X207200Y302131D01*
X204945Y301197D01*
X203009Y299711D01*
X202635Y299225D01*
X201365D01*
X200991Y299711D01*
X199055Y301197D01*
X196800Y302131D01*
X194380Y302450D01*
X191960Y302131D01*
X189705Y301197D01*
X187769Y299711D01*
X186283Y297775D01*
X185349Y295520D01*
X185030Y293100D01*
X185349Y290680D01*
X186283Y288425D01*
X187769Y286489D01*
X189705Y285003D01*
X191960Y284069D01*
X194380Y283750D01*
X196800Y284069D01*
X199055Y285003D01*
X200991Y286489D01*
X201365Y286975D01*
X202635D01*
X203009Y286489D01*
X204945Y285003D01*
X207200Y284069D01*
X207961Y283968D01*
Y276832D01*
X207200Y276731D01*
X204945Y275797D01*
X203009Y274311D01*
X202635Y273825D01*
X201365D01*
X200991Y274311D01*
X199055Y275797D01*
X196800Y276731D01*
X194380Y277050D01*
X191960Y276731D01*
X189705Y275797D01*
X187769Y274311D01*
X186283Y272375D01*
X185349Y270120D01*
X185030Y267700D01*
X185349Y265280D01*
X186283Y263025D01*
X187769Y261089D01*
X189705Y259603D01*
X191960Y258669D01*
X194380Y258350D01*
X196800Y258669D01*
X199055Y259603D01*
X200991Y261089D01*
X201365Y261575D01*
X202635D01*
X203009Y261089D01*
X204945Y259603D01*
X207200Y258669D01*
X207961Y258568D01*
Y251432D01*
X207200Y251331D01*
X204945Y250397D01*
X203009Y248911D01*
X202635Y248425D01*
X201365D01*
X200991Y248911D01*
X199055Y250397D01*
X196800Y251331D01*
X194380Y251650D01*
X191960Y251331D01*
X189705Y250397D01*
X187769Y248911D01*
X186283Y246975D01*
X185349Y244720D01*
X185030Y242300D01*
X185349Y239880D01*
X186283Y237625D01*
X187769Y235689D01*
X189705Y234203D01*
X191960Y233269D01*
X194380Y232950D01*
X196800Y233269D01*
X199055Y234203D01*
X200991Y235689D01*
X201365Y236175D01*
X202635D01*
X203009Y235689D01*
X204945Y234203D01*
X207200Y233269D01*
X207961Y233168D01*
Y226032D01*
X207200Y225931D01*
X204945Y224997D01*
X203009Y223511D01*
X202635Y223025D01*
X201365D01*
X200991Y223511D01*
X199055Y224997D01*
X196800Y225931D01*
X194380Y226250D01*
X191960Y225931D01*
X189705Y224997D01*
X187769Y223511D01*
X186283Y221575D01*
X185349Y219320D01*
X185030Y216900D01*
X185349Y214480D01*
X186283Y212225D01*
X187769Y210289D01*
X189705Y208803D01*
X191960Y207869D01*
X194380Y207550D01*
X196800Y207869D01*
X199055Y208803D01*
X200991Y210289D01*
X201365Y210775D01*
X202635D01*
X203009Y210289D01*
X204945Y208803D01*
X207200Y207869D01*
X207961Y207768D01*
Y201912D01*
X206868Y201769D01*
X204305Y200707D01*
X202981Y199691D01*
X202000Y199081D01*
X201019Y199691D01*
X199695Y200707D01*
X197132Y201769D01*
X195650Y201964D01*
Y191500D01*
Y181036D01*
X197132Y181231D01*
X199695Y182293D01*
X201019Y183309D01*
X202000Y183919D01*
X202981Y183309D01*
X204305Y182293D01*
X206868Y181231D01*
X207961Y181087D01*
Y175232D01*
X207200Y175131D01*
X204945Y174197D01*
X203009Y172711D01*
X202635Y172225D01*
X201365D01*
X200991Y172711D01*
X199055Y174197D01*
X196800Y175131D01*
X194380Y175450D01*
X191960Y175131D01*
X189705Y174197D01*
X187769Y172711D01*
X186283Y170775D01*
X185349Y168520D01*
X185030Y166100D01*
X185349Y163680D01*
X186283Y161425D01*
X187769Y159489D01*
X189705Y158003D01*
X191960Y157069D01*
X194380Y156750D01*
X196800Y157069D01*
X199055Y158003D01*
X200991Y159489D01*
X201365Y159975D01*
X202635D01*
X203009Y159489D01*
X204945Y158003D01*
X207200Y157069D01*
X207961Y156968D01*
Y149832D01*
X207200Y149731D01*
X204945Y148797D01*
X203009Y147311D01*
X202635Y146825D01*
X201365D01*
X200991Y147311D01*
X199055Y148797D01*
X196800Y149731D01*
X194380Y150050D01*
X191960Y149731D01*
X189705Y148797D01*
X187769Y147311D01*
X186283Y145375D01*
X185349Y143120D01*
X185030Y140700D01*
X185349Y138280D01*
X186283Y136025D01*
X187769Y134089D01*
X189705Y132603D01*
X191960Y131669D01*
X194380Y131350D01*
X196800Y131669D01*
X199055Y132603D01*
X200991Y134089D01*
X201365Y134575D01*
X202635D01*
X203009Y134089D01*
X204945Y132603D01*
X207200Y131669D01*
X207961Y131568D01*
Y124432D01*
X207200Y124331D01*
X204945Y123397D01*
X203009Y121911D01*
X202635Y121425D01*
X201365D01*
X200991Y121911D01*
X199055Y123397D01*
X196800Y124331D01*
X194380Y124650D01*
X191960Y124331D01*
X189705Y123397D01*
X187769Y121911D01*
X186283Y119975D01*
X185349Y117720D01*
X185030Y115300D01*
X185349Y112880D01*
X186283Y110625D01*
X187769Y108689D01*
X189705Y107203D01*
X191960Y106269D01*
X194380Y105950D01*
X196800Y106269D01*
X199055Y107203D01*
X200991Y108689D01*
X201365Y109175D01*
X202635D01*
X203009Y108689D01*
X204945Y107203D01*
X207200Y106269D01*
X207961Y106168D01*
Y99032D01*
X207200Y98931D01*
X204945Y97997D01*
X203009Y96511D01*
X202635Y96025D01*
X201365D01*
X200991Y96511D01*
X199055Y97997D01*
X196800Y98931D01*
X194380Y99250D01*
X191960Y98931D01*
X189705Y97997D01*
X187769Y96511D01*
X186283Y94575D01*
X185349Y92320D01*
X185030Y89900D01*
X185349Y87480D01*
X186283Y85225D01*
X187769Y83289D01*
X189705Y81803D01*
X191960Y80869D01*
X194380Y80550D01*
X196800Y80869D01*
X199055Y81803D01*
X200991Y83289D01*
X201365Y83775D01*
X202635D01*
X203009Y83289D01*
X204945Y81803D01*
X207200Y80869D01*
X207961Y80768D01*
Y74913D01*
X206868Y74769D01*
X204305Y73707D01*
X202103Y72017D01*
X201897D01*
X199695Y73707D01*
X197132Y74769D01*
X195650Y74964D01*
Y64500D01*
Y54036D01*
X197132Y54231D01*
X199695Y55293D01*
X201897Y56983D01*
X202103D01*
X204305Y55293D01*
X206868Y54231D01*
X207961Y54088D01*
Y48232D01*
X207200Y48131D01*
X204945Y47197D01*
X203009Y45711D01*
X202635Y45225D01*
X201365D01*
X200991Y45711D01*
X199055Y47197D01*
X196800Y48131D01*
X194380Y48450D01*
X191960Y48131D01*
X189705Y47197D01*
X187769Y45711D01*
X186283Y43775D01*
X185349Y41520D01*
X185030Y39100D01*
X185349Y36680D01*
X186283Y34425D01*
X187769Y32489D01*
X189705Y31003D01*
X191960Y30069D01*
X194380Y29750D01*
X196800Y30069D01*
X199055Y31003D01*
X200991Y32489D01*
X201365Y32975D01*
X202635D01*
X203009Y32489D01*
X204945Y31003D01*
X207200Y30069D01*
X207961Y29968D01*
Y22832D01*
X207200Y22731D01*
X204945Y21797D01*
X203009Y20311D01*
X202635Y19825D01*
X201365D01*
X200991Y20311D01*
X199055Y21797D01*
X196800Y22731D01*
X194380Y23050D01*
X191960Y22731D01*
X189705Y21797D01*
X187769Y20311D01*
X186283Y18375D01*
X185349Y16120D01*
X185030Y13700D01*
X185349Y11280D01*
X186283Y9025D01*
X187769Y7089D01*
X189705Y5603D01*
X191960Y4669D01*
X194380Y4350D01*
X196800Y4669D01*
X199055Y5603D01*
X200991Y7089D01*
X201365Y7575D01*
X202635D01*
X203009Y7089D01*
X204945Y5603D01*
X207200Y4669D01*
X207961Y4568D01*
Y2039D01*
X139531D01*
X139431Y2800D01*
X138497Y5055D01*
X137011Y6991D01*
X136525Y7365D01*
Y8635D01*
X137011Y9009D01*
X138497Y10945D01*
X139431Y13200D01*
X139750Y15620D01*
X139431Y18040D01*
X138497Y20295D01*
X137011Y22231D01*
X135075Y23717D01*
X132820Y24651D01*
X130400Y24970D01*
X127980Y24651D01*
X125725Y23717D01*
X123789Y22231D01*
X122303Y20295D01*
X121369Y18040D01*
X121050Y15620D01*
X121369Y13200D01*
X122303Y10945D01*
X123789Y9009D01*
X124275Y8635D01*
Y7365D01*
X123789Y6991D01*
X122303Y5055D01*
X121369Y2800D01*
X121268Y2039D01*
X115413D01*
X115269Y3131D01*
X114207Y5695D01*
X112517Y7897D01*
Y8103D01*
X114207Y10305D01*
X115269Y12868D01*
X115464Y14350D01*
X105000D01*
X94536D01*
X94731Y12868D01*
X95793Y10305D01*
X97483Y8103D01*
Y7897D01*
X95793Y5695D01*
X94731Y3131D01*
X94587Y2039D01*
X88731D01*
X88631Y2800D01*
X87697Y5055D01*
X86211Y6991D01*
X85725Y7365D01*
Y8635D01*
X86211Y9009D01*
X87697Y10945D01*
X88631Y13200D01*
X88950Y15620D01*
X88631Y18040D01*
X87697Y20295D01*
X86211Y22231D01*
X84275Y23717D01*
X82020Y24651D01*
X79600Y24970D01*
X77180Y24651D01*
X74925Y23717D01*
X72989Y22231D01*
X71503Y20295D01*
X70569Y18040D01*
X70250Y15620D01*
X70569Y13200D01*
X71503Y10945D01*
X72989Y9009D01*
X73475Y8635D01*
Y7365D01*
X72989Y6991D01*
X71503Y5055D01*
X70569Y2800D01*
X70468Y2039D01*
X2039D01*
Y4568D01*
X2800Y4669D01*
X5055Y5603D01*
X6991Y7089D01*
X7365Y7575D01*
X8635D01*
X9009Y7089D01*
X10945Y5603D01*
X13200Y4669D01*
X15620Y4350D01*
X18040Y4669D01*
X20295Y5603D01*
X22231Y7089D01*
X23717Y9025D01*
X24651Y11280D01*
X24970Y13700D01*
X24651Y16120D01*
X23717Y18375D01*
X22231Y20311D01*
X20295Y21797D01*
X18040Y22731D01*
X15620Y23050D01*
X13200Y22731D01*
X10945Y21797D01*
X9009Y20311D01*
X8635Y19825D01*
X7365D01*
X6991Y20311D01*
X5055Y21797D01*
X2800Y22731D01*
X2039Y22832D01*
Y29968D01*
X2800Y30069D01*
X5055Y31003D01*
X6991Y32489D01*
X7365Y32975D01*
X8635D01*
X9009Y32489D01*
X10945Y31003D01*
X13200Y30069D01*
X15620Y29750D01*
X18040Y30069D01*
X20295Y31003D01*
X22231Y32489D01*
X23717Y34425D01*
X24651Y36680D01*
X24970Y39100D01*
X24651Y41520D01*
X23717Y43775D01*
X22231Y45711D01*
X20295Y47197D01*
X18040Y48131D01*
X15620Y48450D01*
X13200Y48131D01*
X10945Y47197D01*
X9009Y45711D01*
X8635Y45225D01*
X7365D01*
X6991Y45711D01*
X5055Y47197D01*
X2800Y48131D01*
X2039Y48232D01*
Y54088D01*
X3131Y54231D01*
X5695Y55293D01*
X7897Y56983D01*
X8103D01*
X10305Y55293D01*
X12868Y54231D01*
X14350Y54036D01*
Y64500D01*
Y74964D01*
X12868Y74769D01*
X10304Y73707D01*
X8981Y72691D01*
X8000Y72081D01*
X7019Y72691D01*
X5695Y73707D01*
X3131Y74769D01*
X2039Y74913D01*
Y80768D01*
X2800Y80869D01*
X5055Y81803D01*
X6991Y83289D01*
X7365Y83775D01*
X8635D01*
X9009Y83289D01*
X10945Y81803D01*
X13200Y80869D01*
X15620Y80550D01*
X18040Y80869D01*
X20295Y81803D01*
X22231Y83289D01*
X23717Y85225D01*
X24651Y87480D01*
X24970Y89900D01*
X24651Y92320D01*
X23717Y94575D01*
X22231Y96511D01*
X20295Y97997D01*
X18040Y98931D01*
X15620Y99250D01*
X13200Y98931D01*
X10945Y97997D01*
X9009Y96511D01*
X8635Y96025D01*
X7365D01*
X6991Y96511D01*
X5055Y97997D01*
X2800Y98931D01*
X2039Y99032D01*
Y106168D01*
X2800Y106269D01*
X5055Y107203D01*
X6991Y108689D01*
X7365Y109175D01*
X8635D01*
X9009Y108689D01*
X10945Y107203D01*
X13200Y106269D01*
X15620Y105950D01*
X18040Y106269D01*
X20295Y107203D01*
X22231Y108689D01*
X23717Y110625D01*
X24651Y112880D01*
X24970Y115300D01*
X24651Y117720D01*
X23717Y119975D01*
X22231Y121911D01*
X20295Y123397D01*
X18040Y124331D01*
X15620Y124650D01*
X13200Y124331D01*
X10945Y123397D01*
X9009Y121911D01*
X8635Y121425D01*
X7365D01*
X6991Y121911D01*
X5055Y123397D01*
X2800Y124331D01*
X2039Y124432D01*
Y131568D01*
X2800Y131669D01*
X5055Y132603D01*
X6991Y134089D01*
X7365Y134575D01*
X8635D01*
X9009Y134089D01*
X10945Y132603D01*
X13200Y131669D01*
X15620Y131350D01*
X18040Y131669D01*
X20295Y132603D01*
X22231Y134089D01*
X23717Y136025D01*
X24651Y138280D01*
X24970Y140700D01*
X24651Y143120D01*
X23717Y145375D01*
X22231Y147311D01*
X20295Y148797D01*
X18040Y149731D01*
X15620Y150050D01*
X13200Y149731D01*
X10945Y148797D01*
X9009Y147311D01*
X8635Y146825D01*
X7365D01*
X6991Y147311D01*
X5055Y148797D01*
X2800Y149731D01*
X2039Y149832D01*
Y156968D01*
X2800Y157069D01*
X5055Y158003D01*
X6991Y159489D01*
X7365Y159975D01*
X8635D01*
X9009Y159489D01*
X10945Y158003D01*
X13200Y157069D01*
X15620Y156750D01*
X18040Y157069D01*
X20295Y158003D01*
X22231Y159489D01*
X23717Y161425D01*
X24651Y163680D01*
X24970Y166100D01*
X24651Y168520D01*
X23717Y170775D01*
X22231Y172711D01*
X20295Y174197D01*
X18040Y175131D01*
X15620Y175450D01*
X13200Y175131D01*
X10945Y174197D01*
X9009Y172711D01*
X8635Y172225D01*
X7365D01*
X6991Y172711D01*
X5055Y174197D01*
X2800Y175131D01*
X2039Y175232D01*
Y181087D01*
X3131Y181231D01*
X5695Y182293D01*
X7019Y183309D01*
X8000Y183919D01*
X8981Y183309D01*
X10305Y182293D01*
X12868Y181231D01*
X14350Y181036D01*
Y191500D01*
Y201964D01*
X12868Y201769D01*
X10304Y200707D01*
X8981Y199691D01*
X8000Y199081D01*
X7019Y199691D01*
X5695Y200707D01*
X3131Y201769D01*
X2039Y201912D01*
Y207768D01*
X2800Y207869D01*
X5055Y208803D01*
X6991Y210289D01*
X7365Y210775D01*
X8635D01*
X9009Y210289D01*
X10945Y208803D01*
X13200Y207869D01*
X15620Y207550D01*
X18040Y207869D01*
X20295Y208803D01*
X22231Y210289D01*
X23717Y212225D01*
X24651Y214480D01*
X24970Y216900D01*
X24651Y219320D01*
X23717Y221575D01*
X22231Y223511D01*
X20295Y224997D01*
X18040Y225931D01*
X15620Y226250D01*
X13200Y225931D01*
X10945Y224997D01*
X9009Y223511D01*
X8635Y223025D01*
X7365D01*
X6991Y223511D01*
X5055Y224997D01*
X2800Y225931D01*
X2039Y226032D01*
Y233168D01*
X2800Y233269D01*
X5055Y234203D01*
X6991Y235689D01*
X7365Y236175D01*
X8635D01*
X9009Y235689D01*
X10945Y234203D01*
X13200Y233269D01*
X15620Y232950D01*
X18040Y233269D01*
X20295Y234203D01*
X22231Y235689D01*
X23717Y237625D01*
X24651Y239880D01*
X24970Y242300D01*
X24651Y244720D01*
X23717Y246975D01*
X22231Y248911D01*
X20295Y250397D01*
X18040Y251331D01*
X15620Y251650D01*
X13200Y251331D01*
X10945Y250397D01*
X9009Y248911D01*
X8635Y248425D01*
X7365D01*
X6991Y248911D01*
X5055Y250397D01*
X2800Y251331D01*
X2039Y251432D01*
Y258568D01*
X2800Y258669D01*
X5055Y259603D01*
X6991Y261089D01*
X7365Y261575D01*
X8635D01*
X9009Y261089D01*
X10945Y259603D01*
X13200Y258669D01*
X15620Y258350D01*
X18040Y258669D01*
X20295Y259603D01*
X22231Y261089D01*
X23717Y263025D01*
X24651Y265280D01*
X24970Y267700D01*
X24651Y270120D01*
X23717Y272375D01*
X22231Y274311D01*
X20295Y275797D01*
X18040Y276731D01*
X15620Y277050D01*
X13200Y276731D01*
X10945Y275797D01*
X9009Y274311D01*
X8635Y273825D01*
X7365D01*
X6991Y274311D01*
X5055Y275797D01*
X2800Y276731D01*
X2039Y276832D01*
Y283968D01*
X2800Y284069D01*
X5055Y285003D01*
X6991Y286489D01*
X7365Y286975D01*
X8635D01*
X9009Y286489D01*
X10945Y285003D01*
X13200Y284069D01*
X15620Y283750D01*
X18040Y284069D01*
X20295Y285003D01*
X22231Y286489D01*
X23717Y288425D01*
X24651Y290680D01*
X24970Y293100D01*
X24651Y295520D01*
X23717Y297775D01*
X22231Y299711D01*
X20295Y301197D01*
X18040Y302131D01*
X15620Y302450D01*
X13200Y302131D01*
X10945Y301197D01*
X9009Y299711D01*
X8635Y299225D01*
X7365D01*
X6991Y299711D01*
X5055Y301197D01*
X2800Y302131D01*
X2039Y302232D01*
Y308088D01*
X3131Y308231D01*
X5695Y309293D01*
X7019Y310309D01*
X8000Y310919D01*
X8981Y310309D01*
X10305Y309293D01*
X12868Y308231D01*
X14350Y308036D01*
Y318500D01*
Y328964D01*
X12868Y328769D01*
X10304Y327707D01*
X8981Y326691D01*
X8000Y326081D01*
X7019Y326691D01*
X5695Y327707D01*
X3131Y328769D01*
X2039Y328913D01*
Y334768D01*
X2800Y334869D01*
X5055Y335803D01*
X6991Y337289D01*
X7365Y337775D01*
X8635D01*
X9009Y337289D01*
X10945Y335803D01*
X13200Y334869D01*
X15620Y334550D01*
X18040Y334869D01*
X20295Y335803D01*
X22231Y337289D01*
X23717Y339225D01*
X24651Y341480D01*
X24970Y343900D01*
X24651Y346320D01*
X23717Y348575D01*
X22231Y350511D01*
X20295Y351997D01*
X18040Y352931D01*
X15620Y353250D01*
X13200Y352931D01*
X10945Y351997D01*
X9009Y350511D01*
X8635Y350025D01*
X7365D01*
X6991Y350511D01*
X5055Y351997D01*
X2800Y352931D01*
X2039Y353032D01*
Y360168D01*
X2800Y360269D01*
X5055Y361203D01*
X6991Y362689D01*
X7365Y363175D01*
X8635D01*
X9009Y362689D01*
X10945Y361203D01*
X13200Y360269D01*
X15620Y359950D01*
X18040Y360269D01*
X20295Y361203D01*
X22231Y362689D01*
X23717Y364625D01*
X24651Y366880D01*
X24970Y369300D01*
X24651Y371720D01*
X23717Y373975D01*
X22231Y375911D01*
X20295Y377397D01*
X18040Y378331D01*
X15620Y378650D01*
X13200Y378331D01*
X10945Y377397D01*
X9009Y375911D01*
X8635Y375425D01*
X7365D01*
X6991Y375911D01*
X5055Y377397D01*
X2800Y378331D01*
X2039Y378432D01*
Y385568D01*
X2800Y385669D01*
X5055Y386603D01*
X6991Y388089D01*
X7365Y388575D01*
X8635D01*
X9009Y388089D01*
X10945Y386603D01*
X13200Y385669D01*
X15620Y385350D01*
X18040Y385669D01*
X20295Y386603D01*
X22231Y388089D01*
X23717Y390025D01*
X24651Y392280D01*
X24970Y394700D01*
X24651Y397120D01*
X23717Y399375D01*
X22231Y401311D01*
X20295Y402797D01*
X18040Y403731D01*
X15620Y404050D01*
X13200Y403731D01*
X10945Y402797D01*
X9009Y401311D01*
X8635Y400825D01*
X7365D01*
X6991Y401311D01*
X5055Y402797D01*
X2800Y403731D01*
X2039Y403832D01*
Y410968D01*
X2800Y411069D01*
X5055Y412003D01*
X6991Y413489D01*
X7365Y413975D01*
X8635D01*
X9009Y413489D01*
X10945Y412003D01*
X13200Y411069D01*
X15620Y410750D01*
X18040Y411069D01*
X20295Y412003D01*
X22231Y413489D01*
X23717Y415425D01*
X24651Y417680D01*
X24970Y420100D01*
X24651Y422520D01*
X23717Y424775D01*
X22231Y426711D01*
X20295Y428197D01*
X18040Y429131D01*
X15620Y429450D01*
X13200Y429131D01*
X10945Y428197D01*
X9009Y426711D01*
X8635Y426225D01*
X7365D01*
X6991Y426711D01*
X5055Y428197D01*
X2800Y429131D01*
X2039Y429232D01*
Y435088D01*
X3131Y435231D01*
X5695Y436293D01*
X7897Y437983D01*
X8103D01*
X10305Y436293D01*
X12868Y435231D01*
X14350Y435036D01*
Y445500D01*
Y455964D01*
X12868Y455769D01*
X10304Y454707D01*
X8981Y453691D01*
X8000Y453081D01*
X7019Y453691D01*
X5695Y454707D01*
X3131Y455769D01*
X2039Y455913D01*
Y461768D01*
X2800Y461869D01*
X5055Y462803D01*
X6991Y464289D01*
X7365Y464775D01*
X8635D01*
X9009Y464289D01*
X10945Y462803D01*
X13200Y461869D01*
X15620Y461550D01*
X18040Y461869D01*
X20295Y462803D01*
X22231Y464289D01*
X23717Y466225D01*
X24651Y468480D01*
X24970Y470900D01*
X24651Y473320D01*
X23717Y475575D01*
X22231Y477511D01*
X20295Y478997D01*
X18040Y479931D01*
X15620Y480250D01*
X13200Y479931D01*
X10945Y478997D01*
X9009Y477511D01*
X8635Y477025D01*
X7365D01*
X6991Y477511D01*
X5055Y478997D01*
X2800Y479931D01*
X2039Y480032D01*
Y487168D01*
X2800Y487269D01*
X5055Y488203D01*
X6991Y489689D01*
X7365Y490175D01*
X8635D01*
X9009Y489689D01*
X10945Y488203D01*
X13200Y487269D01*
X15620Y486950D01*
X18040Y487269D01*
X20295Y488203D01*
X22231Y489689D01*
X23717Y491625D01*
X24651Y493880D01*
X24970Y496300D01*
X24651Y498720D01*
X23717Y500975D01*
X22231Y502911D01*
X20295Y504397D01*
X18040Y505331D01*
X15620Y505650D01*
X13200Y505331D01*
X10945Y504397D01*
X9009Y502911D01*
X8635Y502425D01*
X7365D01*
X6991Y502911D01*
X5055Y504397D01*
X2800Y505331D01*
X2039Y505432D01*
Y507961D01*
X207961D01*
Y505432D01*
D02*
G37*
%LPC*%
G36*
X149470Y497940D02*
Y486270D01*
X156057D01*
Y490250D01*
X155789Y492284D01*
X155005Y494179D01*
X153756Y495806D01*
X152129Y497054D01*
X150234Y497840D01*
X149470Y497940D01*
D02*
G37*
G36*
X146930D02*
X146166Y497840D01*
X144271Y497054D01*
X142644Y495806D01*
X141395Y494179D01*
X140611Y492284D01*
X140343Y490250D01*
Y486270D01*
X146930D01*
Y497940D01*
D02*
G37*
G36*
X60530D02*
X59766Y497840D01*
X57871Y497054D01*
X56244Y495806D01*
X54995Y494179D01*
X54211Y492284D01*
X53943Y490250D01*
Y486270D01*
X60530D01*
Y497940D01*
D02*
G37*
G36*
X127000Y483884D02*
X125439Y483574D01*
X124116Y482690D01*
X123571Y481874D01*
X122884Y481412D01*
X121970Y481532D01*
X121195Y482050D01*
X119634Y482360D01*
X118073Y482050D01*
X116750Y481166D01*
X115866Y479843D01*
X115556Y478282D01*
X115866Y476721D01*
X116750Y475398D01*
X118073Y474514D01*
X119634Y474204D01*
X121195Y474514D01*
X122518Y475398D01*
X123063Y476214D01*
X123750Y476676D01*
X124664Y476556D01*
X125439Y476038D01*
X127000Y475728D01*
X128561Y476038D01*
X129884Y476922D01*
X130768Y478245D01*
X131078Y479806D01*
X130768Y481367D01*
X129884Y482690D01*
X128561Y483574D01*
X127000Y483884D01*
D02*
G37*
G36*
X60530Y483730D02*
X53943D01*
Y479750D01*
X54189Y477882D01*
X53815Y477422D01*
X53160Y476934D01*
X51394Y477665D01*
X48000Y478112D01*
X44606Y477665D01*
X41444Y476355D01*
X38728Y474272D01*
X36644Y471556D01*
X35334Y468394D01*
X34888Y465000D01*
X35334Y461606D01*
X36644Y458444D01*
X38728Y455728D01*
X41444Y453644D01*
X44606Y452335D01*
X48000Y451888D01*
X51394Y452335D01*
X54277Y453529D01*
X55147Y452576D01*
X54995Y452379D01*
X54211Y450484D01*
X53943Y448450D01*
Y444470D01*
X60530D01*
Y456140D01*
X59766Y456040D01*
X58806Y455642D01*
X58006Y456685D01*
X59355Y458444D01*
X60665Y461606D01*
X61112Y465000D01*
X60665Y468394D01*
X59628Y470898D01*
X60508Y472063D01*
X60530Y472060D01*
Y483730D01*
D02*
G37*
G36*
X63070Y497940D02*
Y485000D01*
Y472060D01*
X63834Y472160D01*
X65729Y472946D01*
X67356Y474194D01*
X68604Y475821D01*
X69390Y477716D01*
X69466Y478301D01*
X70829Y478918D01*
X71337Y478578D01*
X72898Y478268D01*
X74328Y478552D01*
X74728Y478391D01*
X75581Y477800D01*
X75838Y476509D01*
X76722Y475186D01*
X78045Y474302D01*
X79606Y473992D01*
X81166Y474302D01*
X82490Y475186D01*
X83374Y476509D01*
X83684Y478070D01*
X83374Y479631D01*
X82490Y480954D01*
X81166Y481838D01*
X79606Y482148D01*
X78175Y481864D01*
X77776Y482024D01*
X76923Y482615D01*
X76666Y483907D01*
X75782Y485230D01*
X74459Y486114D01*
X72898Y486424D01*
X71337Y486114D01*
X70927Y485840D01*
X69657Y486519D01*
Y490250D01*
X69390Y492284D01*
X68604Y494179D01*
X67356Y495806D01*
X65729Y497054D01*
X63834Y497840D01*
X63070Y497940D01*
D02*
G37*
G36*
X146930Y483730D02*
X140343D01*
Y479750D01*
X140611Y477716D01*
X141395Y475821D01*
X142644Y474194D01*
X144271Y472946D01*
X146166Y472160D01*
X146930Y472060D01*
Y483730D01*
D02*
G37*
G36*
X113108Y471813D02*
X111547Y471502D01*
X110224Y470618D01*
X109340Y469295D01*
X109030Y467734D01*
X109340Y466174D01*
X110224Y464851D01*
X111547Y463966D01*
X113108Y463656D01*
X114669Y463966D01*
X115992Y464851D01*
X116876Y466174D01*
X117186Y467734D01*
X116876Y469295D01*
X115992Y470618D01*
X114669Y471502D01*
X113108Y471813D01*
D02*
G37*
G36*
X97905Y471538D02*
X96344Y471228D01*
X95021Y470344D01*
X94137Y469021D01*
X93827Y467460D01*
X94137Y465899D01*
X95021Y464576D01*
X96344Y463692D01*
X97905Y463382D01*
X99466Y463692D01*
X100789Y464576D01*
X101673Y465899D01*
X101983Y467460D01*
X101673Y469021D01*
X100789Y470344D01*
X99466Y471228D01*
X97905Y471538D01*
D02*
G37*
G36*
X156057Y483730D02*
X149470D01*
Y472060D01*
X149492Y472063D01*
X150372Y470898D01*
X149335Y468394D01*
X148888Y465000D01*
X149335Y461606D01*
X150645Y458444D01*
X151994Y456685D01*
X151194Y455642D01*
X150234Y456040D01*
X149470Y456140D01*
Y444470D01*
X156057D01*
Y448450D01*
X155789Y450484D01*
X155005Y452379D01*
X154853Y452576D01*
X155723Y453529D01*
X158607Y452335D01*
X162000Y451888D01*
X165394Y452335D01*
X168556Y453644D01*
X171272Y455728D01*
X173356Y458444D01*
X174666Y461606D01*
X175112Y465000D01*
X174666Y468394D01*
X173356Y471556D01*
X171272Y474272D01*
X168556Y476355D01*
X165394Y477665D01*
X162000Y478112D01*
X158607Y477665D01*
X156840Y476933D01*
X156185Y477422D01*
X155811Y477882D01*
X156057Y479750D01*
Y483730D01*
D02*
G37*
G36*
X146930Y456140D02*
X146166Y456040D01*
X144271Y455255D01*
X142644Y454006D01*
X141395Y452379D01*
X140818Y450985D01*
X140128Y450906D01*
X139448Y450996D01*
X138226Y452826D01*
X136241Y454152D01*
X133900Y454618D01*
X131559Y454152D01*
X129574Y452826D01*
X128248Y450841D01*
X127782Y448500D01*
X128248Y446159D01*
X129574Y444174D01*
X131559Y442848D01*
X133900Y442383D01*
X136241Y442848D01*
X138226Y444174D01*
X139073Y445442D01*
X140343Y445057D01*
Y444470D01*
X146930D01*
Y456140D01*
D02*
G37*
G36*
X112204Y455010D02*
X110643Y454699D01*
X109320Y453815D01*
X108436Y452492D01*
X108126Y450931D01*
X108436Y449371D01*
X109320Y448048D01*
X110643Y447164D01*
X112204Y446853D01*
X113765Y447164D01*
X115088Y448048D01*
X115972Y449371D01*
X116283Y450931D01*
X115972Y452492D01*
X115088Y453815D01*
X113765Y454699D01*
X112204Y455010D01*
D02*
G37*
G36*
X16890Y455964D02*
Y446770D01*
X26084D01*
X25889Y448251D01*
X24827Y450816D01*
X23137Y453017D01*
X20935Y454707D01*
X18371Y455769D01*
X16890Y455964D01*
D02*
G37*
G36*
X193110D02*
X191628Y455769D01*
X189065Y454707D01*
X186863Y453017D01*
X185173Y450816D01*
X184111Y448251D01*
X183916Y446770D01*
X193110D01*
Y455964D01*
D02*
G37*
G36*
X97667Y454415D02*
X96106Y454104D01*
X94783Y453220D01*
X93899Y451897D01*
X93588Y450336D01*
X93899Y448776D01*
X94783Y447453D01*
X96106Y446568D01*
X97667Y446258D01*
X99228Y446568D01*
X100551Y447453D01*
X101435Y448776D01*
X101745Y450336D01*
X101435Y451897D01*
X100551Y453220D01*
X99228Y454104D01*
X97667Y454415D01*
D02*
G37*
G36*
X63070Y456140D02*
Y444470D01*
X69657D01*
Y445057D01*
X70927Y445442D01*
X71774Y444174D01*
X73759Y442848D01*
X76100Y442383D01*
X78441Y442848D01*
X80426Y444174D01*
X81752Y446159D01*
X82218Y448500D01*
X81752Y450841D01*
X80426Y452826D01*
X78441Y454152D01*
X76100Y454618D01*
X73759Y454152D01*
X71774Y452826D01*
X70552Y450996D01*
X69872Y450906D01*
X69182Y450985D01*
X68604Y452379D01*
X67356Y454006D01*
X65729Y455255D01*
X63834Y456040D01*
X63070Y456140D01*
D02*
G37*
G36*
X26084Y444230D02*
X16890D01*
Y435036D01*
X18371Y435231D01*
X20935Y436293D01*
X23137Y437983D01*
X24827Y440185D01*
X25889Y442748D01*
X26084Y444230D01*
D02*
G37*
G36*
X193110D02*
X183916D01*
X184111Y442748D01*
X185173Y440185D01*
X186863Y437983D01*
X189065Y436293D01*
X191628Y435231D01*
X193110Y435036D01*
Y444230D01*
D02*
G37*
G36*
X60530Y441930D02*
X53943D01*
Y437950D01*
X54211Y435916D01*
X54995Y434021D01*
X56244Y432394D01*
X57871Y431146D01*
X59766Y430360D01*
X60530Y430260D01*
Y441930D01*
D02*
G37*
G36*
X146930D02*
X140343D01*
Y437950D01*
X140611Y435916D01*
X141395Y434021D01*
X142644Y432394D01*
X144271Y431146D01*
X146166Y430360D01*
X146930Y430260D01*
Y441930D01*
D02*
G37*
G36*
X156057D02*
X149470D01*
Y430260D01*
X150234Y430360D01*
X152129Y431146D01*
X153756Y432394D01*
X155005Y434021D01*
X155789Y435916D01*
X156057Y437950D01*
Y441930D01*
D02*
G37*
G36*
X69657D02*
X63070D01*
Y430260D01*
X63834Y430360D01*
X65729Y431146D01*
X67356Y432394D01*
X68604Y434021D01*
X69390Y435916D01*
X69657Y437950D01*
Y441930D01*
D02*
G37*
G36*
X88138Y416828D02*
X86577Y416518D01*
X85254Y415634D01*
X84370Y414311D01*
X84060Y412750D01*
X84370Y411189D01*
X85254Y409866D01*
X86577Y408982D01*
X88138Y408672D01*
X89699Y408982D01*
X91022Y409866D01*
X91906Y411189D01*
X92216Y412750D01*
X91906Y414311D01*
X91022Y415634D01*
X89699Y416518D01*
X88138Y416828D01*
D02*
G37*
G36*
X60000Y414078D02*
X58439Y413768D01*
X57116Y412884D01*
X56232Y411561D01*
X55922Y410000D01*
X56232Y408439D01*
X57116Y407116D01*
X58439Y406232D01*
X60000Y405922D01*
X61561Y406232D01*
X62884Y407116D01*
X63768Y408439D01*
X64078Y410000D01*
X63768Y411561D01*
X62884Y412884D01*
X61561Y413768D01*
X60000Y414078D01*
D02*
G37*
G36*
X89662Y403874D02*
X88101Y403564D01*
X86778Y402680D01*
X85894Y401357D01*
X85584Y399796D01*
X85894Y398235D01*
X86778Y396912D01*
X88101Y396028D01*
X89662Y395718D01*
X91223Y396028D01*
X92546Y396912D01*
X93430Y398235D01*
X93740Y399796D01*
X93430Y401357D01*
X92546Y402680D01*
X91223Y403564D01*
X89662Y403874D01*
D02*
G37*
G36*
X152400Y397778D02*
X150839Y397468D01*
X149516Y396584D01*
X148632Y395261D01*
X148322Y393700D01*
X148632Y392139D01*
X149516Y390816D01*
X150839Y389932D01*
X152400Y389622D01*
X153961Y389932D01*
X155284Y390816D01*
X156168Y392139D01*
X156478Y393700D01*
X156168Y395261D01*
X155284Y396584D01*
X153961Y397468D01*
X152400Y397778D01*
D02*
G37*
G36*
X66040D02*
X64479Y397468D01*
X63156Y396584D01*
X62272Y395261D01*
X61962Y393700D01*
X62272Y392139D01*
X63156Y390816D01*
X64479Y389932D01*
X66040Y389622D01*
X67601Y389932D01*
X68924Y390816D01*
X69808Y392139D01*
X70118Y393700D01*
X69808Y395261D01*
X68924Y396584D01*
X67601Y397468D01*
X66040Y397778D01*
D02*
G37*
G36*
X69588Y388974D02*
X68027Y388664D01*
X66704Y387780D01*
X65820Y386457D01*
X65509Y384896D01*
X65820Y383335D01*
X66704Y382012D01*
X68027Y381128D01*
X69588Y380817D01*
X71148Y381128D01*
X72471Y382012D01*
X73355Y383335D01*
X73666Y384896D01*
X73355Y386457D01*
X72471Y387780D01*
X71148Y388664D01*
X69588Y388974D01*
D02*
G37*
G36*
X78232Y365774D02*
X76671Y365464D01*
X75348Y364580D01*
X74464Y363257D01*
X74154Y361696D01*
X74464Y360135D01*
X75348Y358812D01*
X76671Y357928D01*
X78232Y357618D01*
X79793Y357928D01*
X81116Y358812D01*
X82000Y360135D01*
X82310Y361696D01*
X82000Y363257D01*
X81116Y364580D01*
X79793Y365464D01*
X78232Y365774D01*
D02*
G37*
G36*
X127224Y351149D02*
X125663Y350838D01*
X124340Y349954D01*
X123456Y348631D01*
X123146Y347070D01*
X123456Y345509D01*
X124340Y344186D01*
X125663Y343302D01*
X127224Y342992D01*
X128785Y343302D01*
X130108Y344186D01*
X130992Y345509D01*
X131302Y347070D01*
X130992Y348631D01*
X130108Y349954D01*
X128785Y350838D01*
X127224Y351149D01*
D02*
G37*
G36*
X16890Y328964D02*
Y319770D01*
X26084D01*
X25889Y321251D01*
X24827Y323815D01*
X23137Y326017D01*
X20935Y327707D01*
X18371Y328769D01*
X16890Y328964D01*
D02*
G37*
G36*
X193110D02*
X191628Y328769D01*
X189065Y327707D01*
X186863Y326017D01*
X185173Y323815D01*
X184111Y321251D01*
X183916Y319770D01*
X193110D01*
Y328964D01*
D02*
G37*
G36*
X26084Y317230D02*
X16890D01*
Y308036D01*
X18371Y308231D01*
X20935Y309293D01*
X23137Y310983D01*
X24827Y313185D01*
X25889Y315749D01*
X26084Y317230D01*
D02*
G37*
G36*
X193110D02*
X183916D01*
X184111Y315749D01*
X185173Y313185D01*
X186863Y310983D01*
X189065Y309293D01*
X191628Y308231D01*
X193110Y308036D01*
Y317230D01*
D02*
G37*
G36*
X71120Y302782D02*
X69559Y302472D01*
X68236Y301588D01*
X67352Y300265D01*
X67042Y298704D01*
X67352Y297143D01*
X68236Y295820D01*
X69559Y294936D01*
X71120Y294626D01*
X71964Y294793D01*
X73414Y294015D01*
X73448Y293841D01*
X74332Y292518D01*
X75655Y291634D01*
X77216Y291324D01*
X78777Y291634D01*
X80100Y292518D01*
X80984Y293841D01*
X81294Y295402D01*
X80984Y296963D01*
X80100Y298286D01*
X78777Y299170D01*
X77216Y299480D01*
X76372Y299312D01*
X74922Y300091D01*
X74888Y300265D01*
X74004Y301588D01*
X72681Y302472D01*
X71120Y302782D01*
D02*
G37*
G36*
X144780Y288558D02*
X143219Y288248D01*
X141896Y287364D01*
X141012Y286041D01*
X140702Y284480D01*
X141012Y282919D01*
X141896Y281596D01*
X143219Y280712D01*
X144780Y280402D01*
X146341Y280712D01*
X147664Y281596D01*
X148548Y282919D01*
X148858Y284480D01*
X148548Y286041D01*
X147664Y287364D01*
X146341Y288248D01*
X144780Y288558D01*
D02*
G37*
G36*
X131826Y278398D02*
X130265Y278088D01*
X128942Y277204D01*
X128058Y275881D01*
X127748Y274320D01*
X128058Y272759D01*
X128942Y271436D01*
X130265Y270552D01*
X131826Y270242D01*
X133387Y270552D01*
X134710Y271436D01*
X135594Y272759D01*
X135904Y274320D01*
X135594Y275881D01*
X134710Y277204D01*
X133387Y278088D01*
X131826Y278398D01*
D02*
G37*
G36*
X73660Y269508D02*
X72099Y269198D01*
X70776Y268314D01*
X69892Y266991D01*
X69582Y265430D01*
X69892Y263869D01*
X70776Y262546D01*
X72099Y261662D01*
X73660Y261352D01*
X75221Y261662D01*
X76544Y262546D01*
X77428Y263869D01*
X77738Y265430D01*
X77428Y266991D01*
X76544Y268314D01*
X75221Y269198D01*
X73660Y269508D01*
D02*
G37*
G36*
X156210Y263158D02*
X154649Y262848D01*
X153326Y261964D01*
X152442Y260641D01*
X152132Y259080D01*
X152442Y257519D01*
X153326Y256196D01*
X154649Y255312D01*
X156210Y255002D01*
X157771Y255312D01*
X159094Y256196D01*
X159978Y257519D01*
X160288Y259080D01*
X159978Y260641D01*
X159094Y261964D01*
X157771Y262848D01*
X156210Y263158D01*
D02*
G37*
G36*
X142357Y251788D02*
X140796Y251477D01*
X139473Y250593D01*
X138589Y249270D01*
X138279Y247709D01*
X138589Y246149D01*
X139473Y244826D01*
X140796Y243941D01*
X142357Y243631D01*
X143918Y243941D01*
X145241Y244826D01*
X146125Y246149D01*
X146435Y247709D01*
X146125Y249270D01*
X145241Y250593D01*
X143918Y251477D01*
X142357Y251788D01*
D02*
G37*
G36*
X134417Y241910D02*
X132856Y241599D01*
X131533Y240715D01*
X130649Y239392D01*
X130338Y237831D01*
X130649Y236271D01*
X131533Y234947D01*
X132856Y234063D01*
X134417Y233753D01*
X135977Y234063D01*
X137300Y234947D01*
X138184Y236271D01*
X138495Y237831D01*
X138184Y239392D01*
X137300Y240715D01*
X135977Y241599D01*
X134417Y241910D01*
D02*
G37*
G36*
X39523Y252807D02*
X37962Y252497D01*
X36639Y251613D01*
X35755Y250290D01*
X35444Y248729D01*
X35755Y247168D01*
X36639Y245845D01*
X37962Y244961D01*
X39523Y244650D01*
X39560Y244658D01*
X40707Y243591D01*
X40936Y242439D01*
X41820Y241116D01*
X43143Y240232D01*
X44704Y239922D01*
X44766Y239934D01*
X45436Y239264D01*
X45692Y238823D01*
X45968Y237439D01*
X46852Y236116D01*
X48175Y235232D01*
X49736Y234922D01*
X50248Y235024D01*
X50717Y234513D01*
X51100Y233898D01*
X50822Y232500D01*
X51132Y230939D01*
X52016Y229616D01*
X53339Y228732D01*
X54900Y228422D01*
X55901Y228621D01*
X57232Y228439D01*
X58116Y227116D01*
X59439Y226232D01*
X61000Y225922D01*
X62561Y226232D01*
X63884Y227116D01*
X64768Y228439D01*
X65078Y230000D01*
X64768Y231561D01*
X63884Y232884D01*
X62561Y233768D01*
X61000Y234078D01*
X59999Y233879D01*
X58668Y234061D01*
X57784Y235384D01*
X56461Y236268D01*
X54900Y236578D01*
X54387Y236476D01*
X53919Y236987D01*
X53536Y237602D01*
X53814Y239000D01*
X53503Y240561D01*
X52619Y241884D01*
X51296Y242768D01*
X49736Y243078D01*
X49673Y243066D01*
X49003Y243736D01*
X48747Y244177D01*
X48472Y245561D01*
X47588Y246884D01*
X46265Y247768D01*
X44704Y248078D01*
X44666Y248071D01*
X43520Y249138D01*
X43291Y250290D01*
X42407Y251613D01*
X41083Y252497D01*
X39523Y252807D01*
D02*
G37*
G36*
X71866Y241604D02*
X70305Y241293D01*
X68982Y240409D01*
X68098Y239086D01*
X67787Y237525D01*
X68098Y235965D01*
X68982Y234641D01*
X70149Y233862D01*
X70351Y233505D01*
X70549Y232414D01*
X69892Y231431D01*
X69582Y229870D01*
X69892Y228309D01*
X70776Y226986D01*
X72099Y226102D01*
X73660Y225792D01*
X75221Y226102D01*
X76544Y226986D01*
X77428Y228309D01*
X77738Y229870D01*
X77428Y231431D01*
X76544Y232754D01*
X75377Y233533D01*
X75175Y233891D01*
X74977Y234981D01*
X75634Y235965D01*
X75944Y237525D01*
X75634Y239086D01*
X74750Y240409D01*
X73426Y241293D01*
X71866Y241604D01*
D02*
G37*
G36*
X144748Y233509D02*
X143187Y233198D01*
X141864Y232314D01*
X140980Y230991D01*
X140669Y229431D01*
X140980Y227870D01*
X141864Y226547D01*
X143187Y225663D01*
X144748Y225352D01*
X146308Y225663D01*
X147631Y226547D01*
X148516Y227870D01*
X148826Y229431D01*
X148516Y230991D01*
X147631Y232314D01*
X146308Y233198D01*
X144748Y233509D01*
D02*
G37*
G36*
X109220Y230138D02*
X107659Y229828D01*
X106336Y228944D01*
X105452Y227621D01*
X105142Y226060D01*
X105452Y224499D01*
X106336Y223176D01*
X107659Y222292D01*
X109220Y221982D01*
X110781Y222292D01*
X112104Y223176D01*
X112988Y224499D01*
X113298Y226060D01*
X112988Y227621D01*
X112104Y228944D01*
X110781Y229828D01*
X109220Y230138D01*
D02*
G37*
G36*
X130556Y229884D02*
X128995Y229574D01*
X127672Y228690D01*
X126788Y227367D01*
X126478Y225806D01*
X126788Y224245D01*
X127672Y222922D01*
X128995Y222038D01*
X130556Y221728D01*
X132117Y222038D01*
X133440Y222922D01*
X134324Y224245D01*
X134634Y225806D01*
X134324Y227367D01*
X133440Y228690D01*
X132117Y229574D01*
X130556Y229884D01*
D02*
G37*
G36*
X172033Y229859D02*
X170472Y229549D01*
X169149Y228664D01*
X168265Y227341D01*
X167954Y225781D01*
X168265Y224220D01*
X169149Y222897D01*
X170472Y222013D01*
X172033Y221702D01*
X173593Y222013D01*
X174916Y222897D01*
X175801Y224220D01*
X176111Y225781D01*
X175801Y227341D01*
X174916Y228664D01*
X173593Y229549D01*
X172033Y229859D01*
D02*
G37*
G36*
X82804Y230392D02*
X81243Y230082D01*
X79920Y229198D01*
X79036Y227875D01*
X78726Y226314D01*
X79036Y224753D01*
X79920Y223430D01*
X81243Y222546D01*
X82804Y222236D01*
X84365Y222546D01*
X84879Y222890D01*
X85729Y223387D01*
X86507Y222566D01*
X86778Y222160D01*
X88101Y221276D01*
X89662Y220966D01*
X91223Y221276D01*
X92546Y222160D01*
X93430Y223483D01*
X93740Y225044D01*
X93430Y226605D01*
X92546Y227928D01*
X91223Y228812D01*
X89662Y229122D01*
X88101Y228812D01*
X87587Y228468D01*
X86737Y227971D01*
X85959Y228792D01*
X85688Y229198D01*
X84365Y230082D01*
X82804Y230392D01*
D02*
G37*
G36*
X155191Y212358D02*
X153630Y212048D01*
X152307Y211164D01*
X151423Y209841D01*
X151113Y208280D01*
X151423Y206719D01*
X152307Y205396D01*
X152743Y205105D01*
X153072Y203798D01*
X152188Y202475D01*
X151878Y200914D01*
X152188Y199353D01*
X153072Y198030D01*
X154395Y197146D01*
X155956Y196836D01*
X157517Y197146D01*
X158671Y197917D01*
X160048Y197726D01*
X160184Y197522D01*
X161507Y196638D01*
X163068Y196328D01*
X164629Y196638D01*
X165952Y197522D01*
X166836Y198845D01*
X167146Y200406D01*
X166836Y201967D01*
X165952Y203290D01*
X164629Y204174D01*
X163068Y204484D01*
X161507Y204174D01*
X160353Y203403D01*
X158976Y203594D01*
X158840Y203798D01*
X158404Y204089D01*
X158075Y205396D01*
X158959Y206719D01*
X159269Y208280D01*
X158959Y209841D01*
X158075Y211164D01*
X156752Y212048D01*
X155191Y212358D01*
D02*
G37*
G36*
X16890Y201964D02*
Y192770D01*
X26084D01*
X25889Y194251D01*
X24827Y196815D01*
X23137Y199017D01*
X20935Y200707D01*
X18371Y201769D01*
X16890Y201964D01*
D02*
G37*
G36*
X193110D02*
X191628Y201769D01*
X189065Y200707D01*
X186863Y199017D01*
X185173Y196815D01*
X184111Y194251D01*
X183916Y192770D01*
X193110D01*
Y201964D01*
D02*
G37*
G36*
X78740Y194578D02*
X77179Y194268D01*
X75856Y193384D01*
X74972Y192061D01*
X74662Y190500D01*
X74972Y188939D01*
X75856Y187616D01*
X77179Y186732D01*
X78740Y186422D01*
X80301Y186732D01*
X81624Y187616D01*
X82508Y188939D01*
X82818Y190500D01*
X82508Y192061D01*
X81624Y193384D01*
X80301Y194268D01*
X78740Y194578D01*
D02*
G37*
G36*
X131917Y194110D02*
X130356Y193800D01*
X129033Y192916D01*
X128149Y191593D01*
X127838Y190032D01*
X128149Y188471D01*
X129033Y187148D01*
X130356Y186264D01*
X131917Y185954D01*
X133477Y186264D01*
X134800Y187148D01*
X135684Y188471D01*
X135995Y190032D01*
X135684Y191593D01*
X134800Y192916D01*
X133477Y193800D01*
X131917Y194110D01*
D02*
G37*
G36*
X26084Y190230D02*
X16890D01*
Y181036D01*
X18371Y181231D01*
X20935Y182293D01*
X23137Y183983D01*
X24827Y186185D01*
X25889Y188748D01*
X26084Y190230D01*
D02*
G37*
G36*
X193110D02*
X183916D01*
X184111Y188748D01*
X185173Y186185D01*
X186863Y183983D01*
X189065Y182293D01*
X191628Y181231D01*
X193110Y181036D01*
Y190230D01*
D02*
G37*
G36*
X106481Y178921D02*
X104920Y178611D01*
X103597Y177726D01*
X102713Y176403D01*
X102402Y174843D01*
X102713Y173282D01*
X103597Y171959D01*
X104920Y171075D01*
X106481Y170764D01*
X108041Y171075D01*
X109364Y171959D01*
X110248Y173282D01*
X110559Y174843D01*
X110248Y176403D01*
X109364Y177726D01*
X108041Y178611D01*
X106481Y178921D01*
D02*
G37*
G36*
X122936Y178322D02*
X121375Y178012D01*
X120052Y177128D01*
X119168Y175805D01*
X118858Y174244D01*
X119168Y172683D01*
X120052Y171360D01*
X121375Y170476D01*
X122936Y170166D01*
X124497Y170476D01*
X125820Y171360D01*
X126704Y172683D01*
X127014Y174244D01*
X126704Y175805D01*
X125820Y177128D01*
X124497Y178012D01*
X122936Y178322D01*
D02*
G37*
G36*
X16890Y74964D02*
Y65770D01*
X26084D01*
X25889Y67252D01*
X24827Y69816D01*
X23137Y72017D01*
X20935Y73707D01*
X18371Y74769D01*
X16890Y74964D01*
D02*
G37*
G36*
X193110D02*
X191628Y74769D01*
X189065Y73707D01*
X186863Y72017D01*
X185173Y69816D01*
X184111Y67252D01*
X183916Y65770D01*
X193110D01*
Y74964D01*
D02*
G37*
G36*
X26084Y63230D02*
X16890D01*
Y54036D01*
X18371Y54231D01*
X20935Y55293D01*
X23137Y56983D01*
X24827Y59184D01*
X25889Y61748D01*
X26084Y63230D01*
D02*
G37*
G36*
X193110D02*
X183916D01*
X184111Y61748D01*
X185173Y59184D01*
X186863Y56983D01*
X189065Y55293D01*
X191628Y54231D01*
X193110Y54036D01*
Y63230D01*
D02*
G37*
G36*
X106270Y26084D02*
Y16890D01*
X115464D01*
X115269Y18371D01*
X114207Y20935D01*
X112517Y23137D01*
X110316Y24827D01*
X107752Y25889D01*
X106270Y26084D01*
D02*
G37*
G36*
X103730D02*
X102248Y25889D01*
X99684Y24827D01*
X97483Y23137D01*
X95793Y20935D01*
X94731Y18371D01*
X94536Y16890D01*
X103730D01*
Y26084D01*
D02*
G37*
G36*
X162000Y33112D02*
X158607Y32665D01*
X155444Y31355D01*
X152729Y29272D01*
X150645Y26556D01*
X149335Y23394D01*
X148888Y20000D01*
X149335Y16606D01*
X150645Y13444D01*
X152729Y10728D01*
X155444Y8644D01*
X158607Y7335D01*
X162000Y6888D01*
X165394Y7335D01*
X168556Y8644D01*
X171272Y10728D01*
X173356Y13444D01*
X174666Y16606D01*
X175112Y20000D01*
X174666Y23394D01*
X173356Y26556D01*
X171272Y29272D01*
X168556Y31355D01*
X165394Y32665D01*
X162000Y33112D01*
D02*
G37*
G36*
X48000D02*
X44606Y32665D01*
X41444Y31355D01*
X38728Y29272D01*
X36644Y26556D01*
X35334Y23394D01*
X34888Y20000D01*
X35334Y16606D01*
X36644Y13444D01*
X38728Y10728D01*
X41444Y8644D01*
X44606Y7335D01*
X48000Y6888D01*
X51394Y7335D01*
X54556Y8644D01*
X57272Y10728D01*
X59355Y13444D01*
X60665Y16606D01*
X61112Y20000D01*
X60665Y23394D01*
X59355Y26556D01*
X57272Y29272D01*
X54556Y31355D01*
X51394Y32665D01*
X48000Y33112D01*
D02*
G37*
%LPD*%
D25*
X61800Y485000D02*
D03*
X148200D02*
D03*
X61800Y443200D02*
D03*
X148200D02*
D03*
D93*
X105000Y15620D02*
D03*
X194380Y445500D02*
D03*
Y318500D02*
D03*
Y191500D02*
D03*
Y64500D02*
D03*
X15620D02*
D03*
Y191500D02*
D03*
Y318500D02*
D03*
Y445500D02*
D03*
D96*
X43180Y439420D02*
D03*
X46482Y443230D02*
D03*
X105259Y490882D02*
D03*
X86360Y495300D02*
D03*
X37128Y381206D02*
D03*
X145848Y268121D02*
D03*
X156734Y236996D02*
D03*
X167640Y327660D02*
D03*
X170180Y337820D02*
D03*
X167640Y332740D02*
D03*
X174950Y286710D02*
D03*
X168529Y257316D02*
D03*
X163830Y189230D02*
D03*
X101600Y102841D02*
D03*
X175260Y431800D02*
D03*
X142240Y347980D02*
D03*
X31750Y490220D02*
D03*
X110490Y140970D02*
D03*
X95250Y173990D02*
D03*
X123190Y328930D02*
D03*
X140970Y387350D02*
D03*
X99060Y261620D02*
D03*
X59690Y242570D02*
D03*
X49530Y195580D02*
D03*
X55880Y99060D02*
D03*
X45720Y415290D02*
D03*
X167640Y431800D02*
D03*
X118110Y495300D02*
D03*
D97*
X39624Y437134D02*
D03*
D98*
X114935Y414031D02*
D03*
X118110Y421640D02*
D03*
X94200Y420489D02*
D03*
X97663Y411040D02*
D03*
Y400976D02*
D03*
Y390912D02*
D03*
Y380848D02*
D03*
Y370784D02*
D03*
Y360720D02*
D03*
Y350656D02*
D03*
Y340592D02*
D03*
Y330528D02*
D03*
Y320464D02*
D03*
Y310400D02*
D03*
Y300336D02*
D03*
Y290272D02*
D03*
Y280208D02*
D03*
X101566Y270931D02*
D03*
X107212Y262600D02*
D03*
X128062Y256745D02*
D03*
X126167Y266629D02*
D03*
X121420Y275503D02*
D03*
X114935Y283199D02*
D03*
Y293263D02*
D03*
Y303327D02*
D03*
Y313391D02*
D03*
Y323455D02*
D03*
Y333519D02*
D03*
Y343583D02*
D03*
Y353647D02*
D03*
Y363711D02*
D03*
Y373775D02*
D03*
Y383839D02*
D03*
Y393903D02*
D03*
Y403967D02*
D03*
M02*
