M48
;Layer_Color=9474304
;FILE_FORMAT=4:4
METRIC,LZ
;TYPE=PLATED
T1F00S00C0.2500
T2F00S00C0.3000
T4F00S00C1.0000
;TYPE=NON_PLATED
T5F00S00C0.7000
T6F00S00C2.1000
%
T01
X00039624Y00437134
T02
X0005588Y0009906
X001016Y00102841
X0011049Y0014097
X00106481Y00174843
X0009525Y0017399
X00122936Y00174244
X00131917Y00190032
X0016383Y0018923
X00163068Y00200406
X00155956Y00200914
X00155191Y0020828
X00156734Y00236996
X00144748Y00229431
X00130556Y00225806
X00134417Y00237831
X00142357Y00247709
X00128062Y00256745
X00126167Y00266629
X00131826Y0027432
X0012142Y00275503
X00114935Y00283199
Y00293263
Y00303327
Y00313391
Y00323455
Y00333519
Y00343583
Y00353647
Y00363711
Y00373775
Y00383839
Y00393903
X00097663Y00390912
Y00380848
Y00370784
Y0036072
Y00350656
Y00340592
Y00330528
Y00320464
Y003104
Y00300336
Y00290272
Y00280208
X00101566Y00270931
X0009906Y0026162
X00107212Y002626
X0007366Y0026543
X00071866Y00237525
X0007366Y0022987
X00082804Y00226314
X00089662Y00225044
X0010922Y0022606
X00061Y0023
X000549Y002325
X00049736Y00239
X00044704Y00244
X00039523Y00248729
X0005969Y0024257
X0004953Y0019558
X0007874Y001905
X00077216Y00295402
X0007112Y00298704
X00078232Y00361696
X00069588Y00384896
X0006604Y003937
X00037128Y00381206
X0014097Y0038735
X001524Y003937
X00171016Y00392523
X0017653Y0039243
X00181868Y00392713
X0017018Y0033782
X0016764Y0033274
Y0032766
X0014224Y0034798
X00127224Y0034707
X0012319Y0032893
X0014478Y0028448
X00145848Y00268121
X0015621Y0025908
X00168529Y00257316
X00172033Y00225781
X0017495Y0028671
X0017526Y004318
X0016764
X0011811Y0042164
X00114935Y00414031
Y00403967
X00097663Y00400976
X00089662Y00399796
X00088138Y0041275
X00097663Y0041104
X000942Y00420489
X00097667Y00450336
X00112204Y00450931
X00113108Y00467734
X00097905Y0046746
X00079606Y0047807
X00072898Y00482346
X0008636Y004953
X00105259Y00490882
X0011811Y004953
X00119634Y00478282
X00127Y00479806
X0003175Y0049022
X00046482Y0044323
X0004318Y0043942
X0004572Y0041529
X0006Y0041
T04
X0000038Y000137
X0001562
Y000391
X0000038
Y000645
X0001562
Y000899
X0000038
Y001153
X0001562
Y001407
X0000038
Y001661
X0001562
Y001915
X0000038
Y002169
X0001562
Y002423
X0000038
Y002677
X0001562
Y002931
X0000038
Y003185
X0001562
Y003439
X0000038
Y003693
X0001562
Y003947
X0000038
X0019438
X0020962
Y003693
X0019438
Y003439
X0020962
Y003185
X0019438
Y002931
X0020962
Y002677
X0019438
Y002423
X0020962
Y002169
X0019438
Y001915
X0020962
Y001661
X0019438
Y001407
X0020962
Y001153
X0019438
Y000899
X0020962
Y000645
X0019438
Y000391
X0020962
Y000137
X0019438
X001304Y0001562
Y0000038
X00105
Y0001562
X000796
Y0000038
X0001562Y004201
X0000038
Y004455
X0001562
Y004709
X0000038
Y004963
X0001562
X0019438
X0020962
Y004709
X0019438
Y004455
X0020962
Y004201
X0019438
T05
X000761Y004485
X001339
T06
X00048Y0002
X00162
Y00465
X00048
M30
